<?xml version="1.0" encoding="UTF-8"?>
<svg width="12px" height="12px" viewBox="0 0 12 12" version="1.1" xmlns="http://www.w3.org/2000/svg" xmlns:xlink="http://www.w3.org/1999/xlink">
    <title>icon / party flip</title>
    <g id="icons" stroke="none" stroke-width="1" fill="none" fill-rule="evenodd">
        <g id="Layer_1">
            <path d="M8.90361556,11.0784439 C11.7394086,9.44030902 12.7109184,5.81386078 11.0738339,2.97746124 C9.43674942,0.141061697 5.81066125,-0.831791226 2.97365557,0.804242656 C0.136649897,2.44027654 -0.837545955,6.06600414 0.797437071,8.90361556 C1.57318187,10.2784868 2.86929146,11.2835866 4.39399326,11.692653 C5.91869506,12.1017193 7.54385101,11.8803736 8.90361556,11.0784439 L8.90361556,11.0784439 L8.90361556,11.0784439 Z" id="path-1-2" fill="#3061F2"></path>
            <path d="M8.91020595,0.80402746 C6.0711843,-0.833869647 2.44192457,0.139834183 0.80402746,2.97885584 C-0.833869647,5.81787749 0.139834183,9.44713722 2.97885584,11.0850343 C3.04475973,11.0850343 3.04475973,11.1509382 3.11066362,11.1509382 L9.04201373,0.86993135 C9.00780653,0.832330815 8.9608107,0.808832899 8.91020595,0.80402746 L8.91020595,0.80402746 L8.91020595,0.80402746 Z" id="Combined-Shape" fill="#FF3F3F"></path>
            <path d="M7.58553776,3.76311213 L7.58553776,2.51093822 C7.58553776,2.44503432 7.71734554,2.37913043 7.71734554,2.44503432 L9.56265446,4.09263158 C9.62978259,4.1676831 9.62978259,4.28119562 9.56265446,4.35624714 L7.71734554,6.00384439 C7.65144165,6.06974828 7.58553776,6.00384439 7.58553776,5.9379405 L7.58553776,4.6198627 L4.02672769,4.6198627 C3.81520007,4.60413062 3.64703642,4.43596697 3.63130435,4.22443936 C3.64703642,4.01291175 3.81520007,3.84474809 4.02672769,3.82901602 L7.58553776,3.82901602 L7.58553776,3.76311213 L7.58553776,3.76311213 L7.58553776,3.76311213 Z" id="Combined-Shape-2" fill="#FEFEFE"></path>
            <path d="M3.9608238,8.24457666 L3.9608238,9.49675057 C3.9608238,9.56265446 3.82901602,9.62855835 3.82901602,9.56265446 L1.98370709,7.91505721 C1.91657897,7.84000569 1.91657897,7.72649317 1.98370709,7.65144165 L3.82901602,6.00384439 C3.89491991,5.9379405 3.9608238,6.00384439 3.9608238,6.06974828 L3.9608238,7.38782609 L7.51963387,7.38782609 C7.73802015,7.38782609 7.91505721,7.56486315 7.91505721,7.78324943 C7.91505721,8.00163571 7.73802015,8.17867277 7.51963387,8.17867277 L3.9608238,8.17867277 L3.9608238,8.24457666 L3.9608238,8.24457666 L3.9608238,8.24457666 Z" id="Combined-Shape-3" fill="#FEFEFE"></path>
        </g>
    </g>
</svg>