<?xml version="1.0" encoding="UTF-8"?>
<svg width="48px" height="32px" viewBox="0 0 48 32" version="1.1" xmlns="http://www.w3.org/2000/svg" xmlns:xlink="http://www.w3.org/1999/xlink">
    <title>Group 6</title>
    <g id="Senate-results-v1" stroke="none" stroke-width="1" fill="none" fill-rule="evenodd" stroke-linecap="round" stroke-linejoin="round">
        <g id="EC-Nat-Senate-M_v1-Whos-Leading" transform="translate(-220.000000, -816.000000)" stroke="#FFC61C">
            <g id="Group-5" transform="translate(16.000000, 810.000000)">
                <g id="Group-15-Copy" transform="translate(191.000000, 0.000000)">
                    <g id="Group-6" transform="translate(14.000000, 7.000000)">
                        <path d="M13.7317642,26.5233312 C13.6722562,26.5486392 13.6148002,26.6163552 13.6332682,26.6635512 C13.6448962,26.6922792 13.6852522,26.7127992 13.7064562,26.7025392 C13.7297122,26.6922792 13.7174002,26.6546592 13.7461282,26.6327712 C13.7693842,26.6156712 13.7885362,26.6307192 13.8111082,26.6136192 C13.8371002,26.5937832 13.8480442,26.5452192 13.8288922,26.5226472 C13.8035842,26.4932352 13.7406562,26.5199112 13.7317642,26.5233312 Z" id="Stroke-116" stroke-width="0.5"></path>
                        <path d="M14.596477,26.2952172 C14.586217,26.2822212 14.562961,26.2870092 14.536969,26.2904292 C14.395381,26.3068452 14.365969,26.2446012 14.272945,26.2740132 C14.194285,26.2993212 14.155297,26.3643012 14.147773,26.3772972 C14.134777,26.3978172 14.116309,26.4292812 14.124517,26.4634812 C14.131357,26.4949452 14.158717,26.5127292 14.208649,26.5421412 C14.332453,26.6166972 14.395381,26.6536332 14.430265,26.6474772 C14.477461,26.6392692 14.523289,26.6057532 14.542441,26.5633452 C14.559541,26.5250412 14.540389,26.5113612 14.549281,26.4511692 C14.562961,26.3615652 14.614945,26.3177892 14.596477,26.2952172 Z" id="Stroke-118" stroke-width="0.5"></path>
                        <path d="M16.1601694,27.0847584 C16.0999774,27.0382464 16.0391014,27.0218304 16.0349974,26.9766864 C16.0329454,26.9506944 16.0514134,26.9383824 16.0432054,26.9171784 C16.0274734,26.8816104 15.9570214,26.8809264 15.9453934,26.8809264 C15.9091414,26.8809264 15.8893054,26.8911864 15.8462134,26.9062344 C15.7333534,26.9445384 15.7142014,26.9274384 15.6957334,26.9506944 C15.6410134,27.0204624 15.7613974,27.2564424 15.8790454,27.2619144 C15.9180334,27.2632824 15.9508654,27.2407104 15.9980614,27.2605464 C16.0343134,27.2762784 16.0356814,27.2988504 16.0657774,27.3159504 C16.1307574,27.3528864 16.2518254,27.3173184 16.2696094,27.2578104 C16.2908134,27.1887264 16.1717974,27.0936504 16.1601694,27.0847584 Z" id="Stroke-120" stroke-width="0.5"></path>
                        <path d="M17.0004634,27.387018 C16.9361674,27.374022 16.9074394,27.35487 16.8280954,27.35145 C16.7802154,27.348714 16.7131834,27.345294 16.6988194,27.376758 C16.6851394,27.40617 16.7254954,27.458838 16.7699554,27.485514 C16.8123634,27.510822 16.8479314,27.50535 16.9156474,27.50535 C17.1140074,27.50535 17.1612034,27.548442 17.2200274,27.502614 C17.2542274,27.475254 17.2815874,27.426006 17.2672234,27.400698 C17.2460194,27.36171 17.1543634,27.417798 17.0004634,27.387018 Z" id="Stroke-122" stroke-width="0.5"></path>
                        <path d="M17.0275498,27.6461856 C17.0056618,27.6468696 16.9666738,27.6550776 16.9605178,27.6762816 C16.9557298,27.6926976 16.9741978,27.7050096 16.9960858,27.7378416 C17.0398618,27.8021376 17.0268658,27.8411256 17.0508058,27.8493336 C17.0863738,27.8609616 17.1718738,27.7980336 17.1602458,27.7282656 C17.1499858,27.6680736 17.0740618,27.6441336 17.0275498,27.6461856 Z" id="Stroke-124" stroke-width="0.5"></path>
                        <path d="M17.9824138,27.8318916 C17.9495818,27.7470756 17.8798138,27.7060356 17.8059418,27.6622596 C17.7395938,27.6232716 17.6971858,27.5986476 17.6547778,27.6130116 C17.6062138,27.6294276 17.5973218,27.6807276 17.5638058,27.6779916 C17.5296058,27.6759396 17.5302898,27.6225876 17.4762538,27.5904396 C17.4420538,27.5706036 17.3845978,27.5576076 17.3469778,27.5870196 C17.3134618,27.6130116 17.3086738,27.6615756 17.3161978,27.6944076 C17.3298778,27.7580196 17.3975938,27.7901676 17.4276898,27.8052156 C17.4817258,27.8318916 17.4974578,27.8182116 17.5220818,27.8421516 C17.5692778,27.8872956 17.5323418,27.9543276 17.5720138,27.9912636 C17.5973218,28.0145196 17.6274178,28.0035756 17.7307018,27.9926316 C17.9133298,27.9727956 17.9659978,27.9898956 17.9919898,27.9495396 C18.0138778,27.9139716 17.9954098,27.8660916 17.9824138,27.8318916 Z" id="Stroke-126" stroke-width="0.5"></path>
                        <path d="M19.1119714,29.0649384 C19.0900834,29.0273184 19.1126554,28.9739664 19.0866634,28.9609704 C19.0729834,28.9541304 19.0627234,28.9657584 19.0463074,28.9616544 C19.0127914,28.9513944 19.0066354,28.8870984 19.0025314,28.8631584 C18.9847474,28.7667144 18.8903554,28.7058384 18.7768114,28.6319664 C18.6653194,28.5601464 18.6598474,28.5943464 18.5004754,28.5115824 C18.3349474,28.4260824 18.2884354,28.3617864 18.2166154,28.3836744 C18.1612114,28.4007744 18.1140154,28.4630184 18.1208554,28.5102144 C18.1290634,28.5663024 18.2056714,28.5697224 18.2138794,28.6244424 C18.2186674,28.6559064 18.1967794,28.6736904 18.1133314,28.7756064 C18.0182554,28.8905184 18.0073114,28.9151424 18.0018394,28.9397664 C17.9861074,29.0054304 18.0086794,29.0628864 18.0223594,29.0970864 C18.0716074,29.2256784 18.1523194,29.2222584 18.1803634,29.3125464 C18.2172994,29.4308784 18.0969154,29.4924384 18.1290634,29.5970904 C18.1625794,29.7031104 18.3342634,29.7913464 18.4594354,29.7544104 C18.6194914,29.7065304 18.6304354,29.4773904 18.7986994,29.4561864 C18.8458954,29.4500304 18.8595754,29.4671304 18.9252394,29.4548184 C19.0209994,29.4370344 19.0846114,29.3836824 19.1283874,29.3460624 C19.1482234,29.3289624 19.3069114,29.1907944 19.2740794,29.1306024 C19.2508234,29.0861424 19.1454874,29.1230784 19.1119714,29.0649384 Z" id="Stroke-128" stroke-width="0.5"></path>
                        <path d="M17.4092902,27.9968724 C17.3538862,27.9770364 17.2820662,28.0187604 17.2806982,28.0584324 C17.2800142,28.0857924 17.3114782,28.1056284 17.3135302,28.1063124 C17.3668822,28.1377764 17.4578542,28.0974204 17.4626422,28.0563804 C17.4653782,28.0317564 17.4352822,28.0064484 17.4092902,27.9968724 Z" id="Stroke-130" stroke-width="0.5"></path>
                        <path d="M13.7317642,26.5233312 C13.6722562,26.5486392 13.6148002,26.6163552 13.6332682,26.6635512 C13.6448962,26.6922792 13.6852522,26.7127992 13.7064562,26.7025392 C13.7297122,26.6922792 13.7174002,26.6546592 13.7461282,26.6327712 C13.7693842,26.6156712 13.7885362,26.6307192 13.8111082,26.6136192 C13.8371002,26.5937832 13.8480442,26.5452192 13.8288922,26.5226472 C13.8035842,26.4932352 13.7406562,26.5199112 13.7317642,26.5233312 Z" id="Stroke-132" stroke-width="0.5"></path>
                        <path d="M14.596477,26.2952172 C14.586217,26.2822212 14.562961,26.2870092 14.536969,26.2904292 C14.395381,26.3068452 14.365969,26.2446012 14.272945,26.2740132 C14.194285,26.2993212 14.155297,26.3643012 14.147773,26.3772972 C14.134777,26.3978172 14.116309,26.4292812 14.124517,26.4634812 C14.131357,26.4949452 14.158717,26.5127292 14.208649,26.5421412 C14.332453,26.6166972 14.395381,26.6536332 14.430265,26.6474772 C14.477461,26.6392692 14.523289,26.6057532 14.542441,26.5633452 C14.559541,26.5250412 14.540389,26.5113612 14.549281,26.4511692 C14.562961,26.3615652 14.614945,26.3177892 14.596477,26.2952172 Z" id="Stroke-134" stroke-width="0.5"></path>
                        <path d="M16.1601694,27.0847584 C16.0999774,27.0382464 16.0391014,27.0218304 16.0349974,26.9766864 C16.0329454,26.9506944 16.0514134,26.9383824 16.0432054,26.9171784 C16.0274734,26.8816104 15.9570214,26.8809264 15.9453934,26.8809264 C15.9091414,26.8809264 15.8893054,26.8911864 15.8462134,26.9062344 C15.7333534,26.9445384 15.7142014,26.9274384 15.6957334,26.9506944 C15.6410134,27.0204624 15.7613974,27.2564424 15.8790454,27.2619144 C15.9180334,27.2632824 15.9508654,27.2407104 15.9980614,27.2605464 C16.0343134,27.2762784 16.0356814,27.2988504 16.0657774,27.3159504 C16.1307574,27.3528864 16.2518254,27.3173184 16.2696094,27.2578104 C16.2908134,27.1887264 16.1717974,27.0936504 16.1601694,27.0847584 Z" id="Stroke-136" stroke-width="0.5"></path>
                        <path d="M17.0004634,27.387018 C16.9361674,27.374022 16.9074394,27.35487 16.8280954,27.35145 C16.7802154,27.348714 16.7131834,27.345294 16.6988194,27.376758 C16.6851394,27.40617 16.7254954,27.458838 16.7699554,27.485514 C16.8123634,27.510822 16.8479314,27.50535 16.9156474,27.50535 C17.1140074,27.50535 17.1612034,27.548442 17.2200274,27.502614 C17.2542274,27.475254 17.2815874,27.426006 17.2672234,27.400698 C17.2460194,27.36171 17.1543634,27.417798 17.0004634,27.387018 Z" id="Stroke-138" stroke-width="0.5"></path>
                        <path d="M17.0275498,27.6461856 C17.0056618,27.6468696 16.9666738,27.6550776 16.9605178,27.6762816 C16.9557298,27.6926976 16.9741978,27.7050096 16.9960858,27.7378416 C17.0398618,27.8021376 17.0268658,27.8411256 17.0508058,27.8493336 C17.0863738,27.8609616 17.1718738,27.7980336 17.1602458,27.7282656 C17.1499858,27.6680736 17.0740618,27.6441336 17.0275498,27.6461856 Z" id="Stroke-140" stroke-width="0.5"></path>
                        <path d="M17.9824138,27.8318916 C17.9495818,27.7470756 17.8798138,27.7060356 17.8059418,27.6622596 C17.7395938,27.6232716 17.6971858,27.5986476 17.6547778,27.6130116 C17.6062138,27.6294276 17.5973218,27.6807276 17.5638058,27.6779916 C17.5296058,27.6759396 17.5302898,27.6225876 17.4762538,27.5904396 C17.4420538,27.5706036 17.3845978,27.5576076 17.3469778,27.5870196 C17.3134618,27.6130116 17.3086738,27.6615756 17.3161978,27.6944076 C17.3298778,27.7580196 17.3975938,27.7901676 17.4276898,27.8052156 C17.4817258,27.8318916 17.4974578,27.8182116 17.5220818,27.8421516 C17.5692778,27.8872956 17.5323418,27.9543276 17.5720138,27.9912636 C17.5973218,28.0145196 17.6274178,28.0035756 17.7307018,27.9926316 C17.9133298,27.9727956 17.9659978,27.9898956 17.9919898,27.9495396 C18.0138778,27.9139716 17.9954098,27.8660916 17.9824138,27.8318916 Z" id="Stroke-142" stroke-width="0.5"></path>
                        <path d="M19.1119714,29.0649384 C19.0900834,29.0273184 19.1126554,28.9739664 19.0866634,28.9609704 C19.0729834,28.9541304 19.0627234,28.9657584 19.0463074,28.9616544 C19.0127914,28.9513944 19.0066354,28.8870984 19.0025314,28.8631584 C18.9847474,28.7667144 18.8903554,28.7058384 18.7768114,28.6319664 C18.6653194,28.5601464 18.6598474,28.5943464 18.5004754,28.5115824 C18.3349474,28.4260824 18.2884354,28.3617864 18.2166154,28.3836744 C18.1612114,28.4007744 18.1140154,28.4630184 18.1208554,28.5102144 C18.1290634,28.5663024 18.2056714,28.5697224 18.2138794,28.6244424 C18.2186674,28.6559064 18.1967794,28.6736904 18.1133314,28.7756064 C18.0182554,28.8905184 18.0073114,28.9151424 18.0018394,28.9397664 C17.9861074,29.0054304 18.0086794,29.0628864 18.0223594,29.0970864 C18.0716074,29.2256784 18.1523194,29.2222584 18.1803634,29.3125464 C18.2172994,29.4308784 18.0969154,29.4924384 18.1290634,29.5970904 C18.1625794,29.7031104 18.3342634,29.7913464 18.4594354,29.7544104 C18.6194914,29.7065304 18.6304354,29.4773904 18.7986994,29.4561864 C18.8458954,29.4500304 18.8595754,29.4671304 18.9252394,29.4548184 C19.0209994,29.4370344 19.0846114,29.3836824 19.1283874,29.3460624 C19.1482234,29.3289624 19.3069114,29.1907944 19.2740794,29.1306024 C19.2508234,29.0861424 19.1454874,29.1230784 19.1119714,29.0649384 Z" id="Stroke-144" stroke-width="1.026" fill="#FFFFFF"></path>
                        <path d="M17.4092902,27.9968724 C17.3538862,27.9770364 17.2820662,28.0187604 17.2806982,28.0584324 C17.2800142,28.0857924 17.3114782,28.1056284 17.3135302,28.1063124 C17.3668822,28.1377764 17.4578542,28.0974204 17.4626422,28.0563804 C17.4653782,28.0317564 17.4352822,28.0064484 17.4092902,27.9968724 Z" id="Stroke-146" stroke-width="0.5"></path>
                        <path d="M11.5254538,26.75979 C11.4994618,26.703702 11.4666298,26.703018 11.4488458,26.64693 C11.4337978,26.601102 11.4502138,26.584686 11.4317458,26.560746 C11.4125938,26.536122 11.3824978,26.534754 11.3086258,26.528598 C11.3086258,26.528598 11.2381738,26.521074 11.1369418,26.508762 C11.0418658,26.49645 10.9946698,26.48961 10.9693618,26.470458 C10.9269538,26.436942 10.9221658,26.395902 10.8777058,26.387694 C10.8476098,26.381538 10.8188818,26.394534 10.8106738,26.381538 C10.8052018,26.372646 10.8147778,26.36307 10.8154618,26.348706 C10.8181978,26.311086 10.7497978,26.27757 10.7361178,26.27073 C10.7101258,26.258418 10.6396738,26.193438 10.4974018,26.064162 C10.3735978,25.951986 10.3606018,25.919154 10.2997258,25.909578 C10.2532138,25.902738 10.2265378,25.917102 10.1861818,25.893846 C10.1383018,25.865802 10.1437738,25.82613 10.0924738,25.79193 C10.0493818,25.763202 10.0322818,25.783722 9.97892982,25.759782 C9.88932582,25.719426 9.89274582,25.642818 9.83734182,25.635978 C9.78125382,25.629822 9.71216982,25.702326 9.69233382,25.772778 C9.67386582,25.835706 9.70738182,25.85691 9.68412582,25.941726 C9.66839382,26.00055 9.64103382,26.03133 9.62393382,26.047062 C9.60820182,26.060742 9.57400182,26.091522 9.54595782,26.08263 C9.51449382,26.071686 9.53022582,26.023122 9.49192182,25.972506 C9.47960982,25.955406 9.43514982,25.932834 9.34691382,25.888374 C9.26825382,25.848702 9.25594182,25.845282 9.23405382,25.823394 C9.20874582,25.798086 9.20464182,25.782354 9.17454582,25.76457 C9.13829382,25.742682 9.11777382,25.75089 9.10340982,25.73037 C9.08152182,25.700274 9.11298582,25.662654 9.09588582,25.646922 C9.07673382,25.629822 9.01517382,25.650342 8.98028982,25.691382 C8.95429782,25.721478 8.95976982,25.745418 8.93514582,25.754994 C8.90983782,25.765254 8.89478982,25.74405 8.85785382,25.753626 C8.83254582,25.760466 8.82980982,25.772778 8.80860582,25.775514 C8.78329782,25.778934 8.76004182,25.763202 8.74430982,25.748838 L7.79286582,22.294638 C7.74703782,22.301478 7.72514982,22.291218 7.71420582,22.27959 C7.69915782,22.263174 7.69984182,22.239234 7.68684582,22.237182 C7.67521782,22.23513 7.67179782,22.25565 7.65401382,22.259754 C7.63554582,22.263858 7.62528582,22.246074 7.59382182,22.230342 C7.56372582,22.215978 7.55756982,22.224186 7.53157782,22.213242 C7.47754182,22.19067 7.47959382,22.14621 7.45086582,22.144158 C7.41187782,22.141422 7.40161782,22.223502 7.32090582,22.257702 C7.31680182,22.25907 7.29628182,22.263858 7.25524182,22.272066 C7.16426982,22.291902 7.14580182,22.291218 7.13143782,22.281642 C7.10749782,22.264542 7.11844182,22.239234 7.09997382,22.229658 C7.06098582,22.211874 7.00694982,22.315842 6.93512982,22.305582 C6.90298182,22.300794 6.89477382,22.277538 6.85852182,22.280958 C6.82363782,22.283694 6.80790582,22.306266 6.79285782,22.298058 C6.77507382,22.287114 6.79422582,22.250178 6.77370582,22.22829 C6.75660582,22.210506 6.73471782,22.224186 6.68273382,22.212558 C6.63895782,22.202298 6.64374582,22.189302 6.61775382,22.187934 C6.54661782,22.182462 6.47479782,22.278222 6.46180182,22.296006 C6.44812182,22.315158 6.43170582,22.342518 6.42418182,22.339098 C6.41665782,22.336362 6.42418182,22.315842 6.41528982,22.295322 C6.40571382,22.271382 6.38108982,22.261122 6.35304582,22.249494 C6.29764182,22.226922 6.27917382,22.239918 6.24428982,22.21461 C6.23266182,22.206402 6.21282582,22.192038 6.21008982,22.17015 C6.20735382,22.141422 6.23881782,22.127742 6.23266182,22.110642 C6.22376982,22.086018 6.14716182,22.090122 6.11638182,22.092174 C6.08970582,22.093542 6.06576582,22.096962 6.03498582,22.10175 C5.96932182,22.11201 5.94127782,22.120218 5.93170182,22.106538 C5.92486182,22.096278 5.93717382,22.086018 5.93306982,22.064814 C5.92554582,22.032666 5.88382182,22.003938 5.86193382,22.01283 C5.84893782,22.017618 5.84962182,22.031982 5.82704982,22.092858 C5.80994982,22.140054 5.80447782,22.145526 5.79832182,22.148262 C5.76754182,22.160574 5.71076982,22.111326 5.71760982,22.090806 C5.72376582,22.073706 5.76959382,22.087386 5.78327382,22.062078 C5.79284982,22.044978 5.78464182,22.018986 5.77096182,22.003938 C5.74975782,21.980682 5.72581782,21.99231 5.70392982,21.970422 C5.67998982,21.945798 5.68888182,21.910914 5.67930582,21.9094886 C5.66836182,21.907494 5.65810182,21.960846 5.63074182,22.01283 C5.58628182,22.095594 5.50693782,22.151682 5.43169782,22.163994 C5.40502182,22.168098 5.36056182,22.17015 5.35303782,22.15305 C5.34688182,22.138686 5.36945382,22.120218 5.36534982,22.116114 C5.35782582,22.10859 5.26480182,22.155102 5.26548582,22.209138 C5.26616982,22.239918 5.29626582,22.24539 5.29900182,22.284378 C5.30105382,22.315842 5.28395382,22.355514 5.25522582,22.36167 C5.23538982,22.366458 5.21076582,22.35483 5.20666182,22.340466 C5.20324182,22.326102 5.22307782,22.317894 5.22854982,22.28985 C5.23196982,22.274118 5.23060182,22.253598 5.22239382,22.250178 C5.21076582,22.24539 5.19161382,22.282326 5.16562182,22.311738 C5.11842582,22.364406 5.08559382,22.35141 4.98436182,22.407498 C4.90706982,22.449906 4.85645382,22.47795 4.84414182,22.529934 C4.83524982,22.567554 4.85508582,22.583286 4.84414182,22.633902 C4.83730182,22.665366 4.82293782,22.68657 4.79352582,22.728294 C4.74838182,22.791906 4.71144582,22.844574 4.65056982,22.855518 C4.63210182,22.858254 4.63757382,22.852782 4.60200582,22.85415 C4.49803782,22.856886 4.46794182,22.90203 4.41458982,22.882878 C4.38791382,22.872618 4.37423382,22.853466 4.35713382,22.86099 C4.34003382,22.86783 4.33592982,22.894506 4.33524582,22.897242 C4.32977382,22.937598 4.36602582,22.955382 4.35713382,22.979322 C4.34755782,23.002578 4.30651782,22.995054 4.29283782,23.024466 C4.28736582,23.037462 4.29010182,23.050458 4.29215382,23.058666 C4.30514982,23.112018 4.36602582,23.149638 4.38996582,23.16537 C4.50829782,23.24061 4.57532982,23.283702 4.60952982,23.35689 C4.63757382,23.415714 4.64783382,23.467698 4.64783382,23.467698 C4.65740982,23.518314 4.65672582,23.560038 4.68203382,23.57235 C4.69708182,23.57919 4.70665782,23.570298 4.72580982,23.580558 C4.74632982,23.590818 4.74564582,23.607234 4.76206182,23.615442 C4.78258182,23.62707 4.80583782,23.612706 4.82977782,23.605182 C4.90159782,23.581926 4.98983382,23.615442 4.99393782,23.642802 C4.99667382,23.663322 4.95221382,23.669478 4.93990182,23.713254 C4.93100982,23.744034 4.94195382,23.783706 4.96452582,23.793966 C4.98436182,23.802858 5.00556582,23.783706 5.03497782,23.768658 C5.12184582,23.725566 5.24086182,23.739246 5.25864582,23.778918 C5.26958982,23.803542 5.24086182,23.840478 5.22034182,23.857578 C5.19161382,23.881518 5.15262582,23.889042 5.12047782,23.878782 C5.07806982,23.865102 5.07533382,23.829534 5.04113382,23.826114 C5.00966982,23.824062 4.97546982,23.84937 4.97683782,23.867154 C4.97957382,23.891778 5.05207782,23.89041 5.05618182,23.920506 C5.05891782,23.936238 5.04250182,23.956074 5.02608582,23.958126 C4.99598982,23.961546 4.97136582,23.904774 4.95836982,23.909562 C4.94810982,23.915034 4.96726182,23.95539 4.94674182,23.98275 C4.94263782,23.988222 4.93511382,23.995062 4.90091382,24.004638 C4.85371782,24.01695 4.80036582,24.03063 4.77984582,24.007374 C4.76137782,23.98617 4.78531782,23.952654 4.77095382,23.941026 C4.74496182,23.920506 4.66288182,24.011478 4.62115782,23.988222 C4.59379782,23.973174 4.59995382,23.915034 4.59995382,23.906142 C4.60747782,23.83227 4.66630182,23.798754 4.65398982,23.778918 C4.64099382,23.757714 4.56643782,23.778234 4.52744982,23.793966 C4.47683382,23.813118 4.47956982,23.824746 4.43579382,23.841846 C4.35439782,23.874678 4.28599782,23.858262 4.28120982,23.878782 C4.27710582,23.895198 4.31540982,23.910246 4.31130582,23.923242 C4.30583382,23.939658 4.24427382,23.912298 4.18681782,23.93829 C4.12594182,23.964966 4.10610582,24.03405 4.08216582,24.025842 C4.06780182,24.021738 4.06848582,23.995062 4.05822582,23.994378 C4.04386182,23.994378 4.04454582,24.047046 4.01102982,24.07167 C3.97546182,24.097662 3.92826582,24.07167 3.92142582,24.08535 C3.91390182,24.10245 3.97272582,24.16743 4.05617382,24.189318 C4.12115382,24.206418 4.16287782,24.186582 4.19160582,24.219414 C4.20665382,24.236514 4.21622982,24.265926 4.20460182,24.282342 C4.19228982,24.300126 4.15877382,24.301494 4.13825382,24.289866 C4.10952582,24.274134 4.10815782,24.237882 4.09379382,24.238566 C4.08421782,24.238566 4.07327382,24.25293 4.07190582,24.267294 C4.06711782,24.313806 4.15945782,24.334326 4.16561382,24.39657 C4.16834982,24.424614 4.14988182,24.428034 4.15193382,24.453342 C4.15740582,24.514218 4.27231782,24.579198 4.38380982,24.578514 C4.48709382,24.577146 4.52813382,24.519006 4.59448182,24.549786 C4.64509782,24.572358 4.66561782,24.627078 4.67998182,24.620922 C4.69913382,24.61203 4.67450982,24.51969 4.68066582,24.518322 C4.68682182,24.51627 4.70460582,24.62913 4.74427782,24.633918 C4.76958582,24.637338 4.78258182,24.595614 4.82840982,24.54705 C4.88654982,24.48549 4.98983382,24.421194 5.03702982,24.450606 C5.07396582,24.473862 5.07943782,24.55731 5.04592182,24.589458 C5.01992982,24.614766 4.97752182,24.60177 4.97204982,24.619554 C4.96589382,24.63939 5.02061382,24.652386 5.04044982,24.70437 C5.05549782,24.743358 5.03292582,24.756354 5.04523782,24.812442 C5.05618182,24.863058 5.07806982,24.864426 5.07670182,24.894522 C5.07396582,24.947874 5.00146182,25.006698 4.93648182,25.004646 C4.88791782,25.002594 4.87218582,24.968394 4.82840982,24.976602 C4.80720582,24.980022 4.79626182,24.99165 4.75727382,25.028586 C4.64920182,25.133922 4.62936582,25.14897 4.61021382,25.144182 C4.58627382,25.138026 4.59311382,25.109298 4.55686182,25.08399 C4.52060982,25.057998 4.46315382,25.051842 4.43305782,25.076466 C4.41458982,25.091514 4.42416582,25.103826 4.40569782,25.143498 C4.37423382,25.21053 4.32703782,25.221474 4.33114182,25.25841 C4.33387782,25.276878 4.34550582,25.274826 4.35850182,25.30629 C4.37354982,25.342542 4.37423382,25.385634 4.36397382,25.389738 C4.35166182,25.393842 4.34003382,25.341858 4.30378182,25.332966 C4.25042982,25.319286 4.15808982,25.40205 4.15740582,25.482762 C4.15672182,25.53201 4.19023782,25.566894 4.17450582,25.583994 C4.15672182,25.602462 4.10473782,25.571682 4.09379382,25.587414 C4.08353382,25.60383 4.12867782,25.647606 4.11704982,25.661286 C4.11020982,25.66881 4.09037382,25.659234 4.08695382,25.66539 C4.08284982,25.674966 4.12799382,25.69617 4.12457382,25.71669 C4.12115382,25.739262 4.06232982,25.741998 4.06232982,25.757046 C4.06232982,25.770042 4.10815782,25.767306 4.13141382,25.79877 C4.15535382,25.830234 4.13825382,25.871274 4.15466982,25.876746 C4.17176982,25.883586 4.19981382,25.838442 4.21280982,25.845282 C4.22306982,25.850754 4.20870582,25.879482 4.22238582,25.892478 C4.24085382,25.909578 4.29146982,25.88085 4.29420582,25.887006 C4.29762582,25.893846 4.22512182,25.931466 4.22990982,25.945146 C4.23264582,25.951986 4.25726982,25.944462 4.29488982,25.946514 C4.36534182,25.949934 4.37833782,25.985502 4.43374182,25.98003 C4.47341382,25.97661 4.50556182,25.954722 4.50761382,25.958826 C4.50966582,25.96293 4.47614982,25.975926 4.47751782,25.993026 C4.47820182,26.01423 4.52881782,26.016282 4.53223782,26.037486 C4.53634182,26.062794 4.47341382,26.100414 4.45426182,26.086734 C4.43921382,26.07579 4.45426182,26.036802 4.44331782,26.032698 C4.43442582,26.029278 4.41869382,26.051166 4.41458982,26.056638 C4.33729782,26.16129 4.28941782,26.180442 4.29967782,26.21601 C4.30856982,26.246106 4.34550582,26.237214 4.36876182,26.279622 C4.38928182,26.31861 4.36465782,26.34255 4.38380982,26.371962 C4.41595782,26.421894 4.52813382,26.423262 4.55002182,26.387694 C4.55822982,26.374014 4.55070582,26.358966 4.56301782,26.347338 C4.57669782,26.335026 4.59311382,26.348022 4.61910582,26.341866 C4.65740982,26.332974 4.69092582,26.288514 4.68682182,26.252946 C4.68545382,26.233794 4.67382582,26.232426 4.67382582,26.214642 C4.67382582,26.203014 4.67792982,26.184546 4.72444182,26.14419 C4.75864182,26.114094 4.80788982,26.080578 4.81336182,26.086734 C4.81678182,26.091522 4.79215782,26.120934 4.76821782,26.148294 C4.73333382,26.18865 4.71486582,26.20233 4.71896982,26.217378 C4.72375782,26.231058 4.74359382,26.22627 4.75385382,26.244054 C4.76479782,26.263206 4.74632982,26.281674 4.74496182,26.31861 C4.74496182,26.33913 4.75043382,26.35281 4.76000982,26.377434 C4.79215782,26.46225 4.84550982,26.48961 4.83388182,26.52381 C4.83046182,26.532702 4.82704182,26.53065 4.80857382,26.549118 C4.80241782,26.555958 4.74222582,26.618886 4.75727382,26.659242 C4.76684982,26.683866 4.79352582,26.674974 4.81062582,26.703702 C4.82772582,26.731746 4.82156982,26.770734 4.80720582,26.796042 C4.78600182,26.833662 4.74632982,26.84529 4.75043382,26.854182 C4.75316982,26.860338 4.77710982,26.849394 4.81336182,26.85897 C4.84003782,26.86581 4.84072182,26.87607 4.85440182,26.874702 C4.88791782,26.873334 4.88723382,26.813142 4.93716582,26.784414 C4.96657782,26.767314 4.97478582,26.784414 5.01719382,26.768682 C5.08148982,26.745426 5.10679782,26.692758 5.12184582,26.70165 C5.13073782,26.706438 5.12184582,26.723538 5.13005382,26.752266 C5.14168182,26.79399 5.18135382,26.830242 5.19982182,26.822718 C5.22170982,26.815194 5.20392582,26.754318 5.22649782,26.745426 C5.24496582,26.737902 5.28053382,26.772102 5.29831782,26.80767 C5.31268182,26.836398 5.30584182,26.845974 5.31746982,26.877438 C5.33593782,26.924634 5.37697782,26.971146 5.39681382,26.964306 C5.41596582,26.957466 5.41938582,26.895222 5.40570582,26.845974 C5.39544582,26.809722 5.38176582,26.801514 5.38586982,26.781678 C5.39749782,26.737902 5.48504982,26.718066 5.49394182,26.731746 C5.49804582,26.738586 5.47820982,26.748162 5.47342182,26.774154 C5.46931782,26.801514 5.48299782,26.83503 5.51104182,26.853498 C5.53361382,26.868546 5.56781382,26.874702 5.59106982,26.860338 C5.61432582,26.84529 5.60474982,26.823402 5.63074182,26.802198 C5.64852582,26.787834 5.65741782,26.794674 5.70598182,26.778942 C5.75249382,26.764578 5.76480582,26.752266 5.77096182,26.758422 C5.78532582,26.77005 5.75317782,26.837082 5.71829382,26.887698 C5.68067382,26.94105 5.65399782,26.95473 5.65810182,26.980038 C5.66494182,27.017658 5.73060582,27.035442 5.72718582,27.045702 C5.72376582,27.054594 5.67930582,27.03339 5.65673382,27.053226 C5.63826582,27.069642 5.65946982,27.095634 5.64442182,27.144882 C5.63210982,27.185238 5.60816982,27.201654 5.61706182,27.218754 C5.62390182,27.231066 5.63826582,27.225594 5.65331382,27.240642 C5.67588582,27.263214 5.67383382,27.30699 5.66425782,27.31041 C5.65673382,27.313146 5.65194582,27.291258 5.63142582,27.283734 C5.59790982,27.270738 5.54455782,27.300834 5.54113782,27.330246 C5.53908582,27.348714 5.55550182,27.363078 5.54934582,27.370602 C5.54455782,27.376074 5.53361382,27.370602 5.52266982,27.369918 C5.48436582,27.369234 5.43238182,27.43695 5.43306582,27.50193 C5.43306582,27.537498 5.44811382,27.564174 5.43648582,27.571698 C5.42964582,27.576486 5.42212182,27.567594 5.40023382,27.564174 C5.37629382,27.56007 5.34482982,27.562806 5.32636182,27.579906 C5.31131382,27.593586 5.31404982,27.607266 5.30584182,27.62505 C5.28805782,27.663354 5.24222982,27.660618 5.18956182,27.685242 C5.10542982,27.722862 5.02403382,27.817254 5.03360982,27.87813 C5.03497782,27.887022 5.03976582,27.906858 5.02882182,27.923274 C5.02198182,27.934218 5.00693382,27.945846 4.98983382,27.94311 C4.97683782,27.941058 4.96862982,27.930114 4.96794582,27.928746 C4.95836982,27.91575 4.96520982,27.90549 4.95973782,27.897966 C4.94879382,27.88155 4.90296582,27.89523 4.85303382,27.907542 C4.76137782,27.930114 4.77300582,27.920538 4.75248582,27.930114 C4.68340182,27.962262 4.69024182,28.010826 4.61226582,28.050498 C4.58080182,28.06623 4.57190982,28.062126 4.54865382,28.080594 C4.51240182,28.107954 4.51240182,28.131894 4.48230582,28.168146 C4.44126582,28.215342 4.38928182,28.23381 4.37560182,28.238598 C4.32361782,28.257066 4.31677782,28.237914 4.23743382,28.255014 C4.18066182,28.267326 4.13893782,28.276218 4.11910182,28.310418 C4.10473782,28.333674 4.10884182,28.35693 4.08763782,28.368558 C4.06848582,28.379502 4.05275382,28.365138 4.03907382,28.376082 C4.02128982,28.390446 4.02128982,28.433538 4.04249382,28.45611 C4.06916982,28.484154 4.12115382,28.47321 4.14714582,28.461582 C4.17313782,28.450638 4.17245382,28.440378 4.21828182,28.410966 C4.24700982,28.392498 4.26137382,28.383606 4.27847382,28.379502 C4.33182582,28.365822 4.36123782,28.400022 4.38517782,28.381554 C4.40638182,28.365138 4.38996582,28.332306 4.41800982,28.311102 C4.43305782,28.299474 4.44331782,28.304262 4.45494582,28.290582 C4.47136182,28.270746 4.46383782,28.243386 4.46999382,28.242018 C4.47888582,28.24065 4.48572582,28.298106 4.51445382,28.30563 C4.53223782,28.311102 4.54523382,28.290582 4.58832582,28.260486 C4.63894182,28.224918 4.64509782,28.235178 4.69502982,28.19961 C4.73948982,28.16883 4.76137782,28.152414 4.77505782,28.121634 C4.79215782,28.081962 4.77847782,28.053234 4.80104982,28.03887 C4.81678182,28.02861 4.84072182,28.031346 4.85576982,28.041606 C4.86944982,28.051182 4.87834182,28.06965 4.87355382,28.075122 C4.86876582,28.081278 4.85098182,28.066914 4.84072182,28.074438 C4.82567382,28.084698 4.83251382,28.13463 4.85303382,28.142154 C4.87355382,28.149678 4.88791782,28.10727 4.93237782,28.10385 C4.95973782,28.101798 4.97820582,28.115478 4.98846582,28.105218 C4.99872582,28.094274 4.98846582,28.072386 4.99667382,28.068966 C5.00624982,28.064178 5.02608582,28.098378 5.03976582,28.094274 C5.04934182,28.090854 5.04386982,28.071702 5.05618182,28.05255 C5.06849382,28.032714 5.08285782,28.036134 5.11090182,28.016982 C5.14852182,27.991674 5.14236582,27.971154 5.17724982,27.954054 C5.19092982,27.947214 5.22239382,27.934902 5.23333782,27.94653 C5.25180582,27.965682 5.19640182,28.03545 5.21213382,28.048446 C5.21897382,28.054602 5.23880982,28.047762 5.25043782,28.03545 C5.27848182,28.006722 5.24770182,27.964998 5.27164182,27.936954 C5.28737382,27.918486 5.31746982,27.916434 5.36466582,27.914382 C5.40638982,27.91233 5.42827782,27.91917 5.43853782,27.90549 C5.45016582,27.889758 5.43306582,27.863082 5.44264182,27.856926 C5.45358582,27.850086 5.47410582,27.880182 5.49325782,27.875394 C5.51719782,27.869238 5.53429782,27.80973 5.51240982,27.781686 C5.49736182,27.761166 5.46794982,27.766638 5.46452982,27.75159 C5.46042582,27.733806 5.49462582,27.713286 5.49804582,27.71055 C5.52814182,27.692082 5.54250582,27.702342 5.56918182,27.685926 C5.59585782,27.668826 5.58696582,27.653778 5.61022182,27.641466 C5.64373782,27.622998 5.67451782,27.649674 5.69777382,27.630522 C5.71145382,27.619578 5.70529782,27.606582 5.71418982,27.582642 C5.72513382,27.554598 5.74360182,27.543654 5.82636582,27.490986 C5.90776182,27.439002 5.91528582,27.432846 5.92075782,27.417798 C5.93375382,27.378126 5.90297382,27.339822 5.92280982,27.322722 C5.93580582,27.311094 5.95290582,27.324774 5.97000582,27.311094 C5.98984182,27.296046 5.97889782,27.268686 5.99873382,27.256374 C6.01309782,27.247482 6.02267382,27.258426 6.03566982,27.250218 C6.05892582,27.23517 6.04387782,27.191394 6.06166182,27.182502 C6.07397382,27.17703 6.08354982,27.196866 6.10338582,27.19755 C6.14374182,27.198234 6.14784582,27.112734 6.21761382,27.07101 C6.25660182,27.047754 6.27370182,27.06417 6.30037782,27.038178 C6.32158182,27.017658 6.32910582,26.986878 6.34346982,26.926002 C6.35783382,26.86239 6.35578182,26.83845 6.37698582,26.826138 C6.39682182,26.813826 6.41050182,26.829558 6.43649382,26.81793 C6.47069382,26.802882 6.49531782,26.751582 6.48026982,26.716698 C6.47069382,26.69481 6.44812182,26.68455 6.42896982,26.675658 C6.39408582,26.659926 6.38108982,26.669502 6.34688982,26.653086 C6.32910582,26.644878 6.30790182,26.634618 6.29900982,26.612046 C6.28874982,26.587422 6.29764182,26.553906 6.31816182,26.536122 C6.34210182,26.514918 6.37219782,26.525862 6.38108982,26.506026 C6.38861382,26.490978 6.37356582,26.47935 6.38108982,26.46225 C6.38724582,26.446518 6.40502982,26.445834 6.43580982,26.432154 C6.45359382,26.42463 6.51241782,26.399322 6.51378582,26.36991 C6.51446982,26.346654 6.47753382,26.336394 6.48095382,26.319978 C6.48642582,26.29809 6.55961382,26.310402 6.57329382,26.278938 C6.58218582,26.259102 6.55619382,26.245422 6.56234982,26.218062 C6.56987382,26.180442 6.62254182,26.184546 6.63895782,26.142822 C6.65263782,26.107938 6.62185782,26.090838 6.63758982,26.057322 C6.65263782,26.022438 6.69299382,26.02449 6.70325382,25.987554 C6.70872582,25.969086 6.69983382,25.963614 6.70598982,25.94583 C6.71419782,25.921206 6.73745382,25.912998 6.76276182,25.896582 C6.79764582,25.874694 6.81816582,25.849386 6.85373382,25.804926 C6.89819382,25.748838 6.89682582,25.72695 6.92008182,25.722162 C6.94128582,25.718742 6.96727782,25.739946 7.01857782,25.783722 C7.07945382,25.835022 7.07945382,25.848702 7.07876982,25.854174 C7.07466582,25.878798 7.03704582,25.900002 7.00421382,25.89795 C6.96180582,25.895898 6.95086182,25.858278 6.92418582,25.863066 C6.88998582,25.87059 6.90024582,25.938306 6.84689382,25.971138 C6.81816582,25.989606 6.79764582,25.980714 6.78875382,25.997814 C6.77507382,26.023122 6.81679782,26.046378 6.82500582,26.09631 C6.83458182,26.150346 6.79217382,26.169498 6.75865782,26.28441 C6.74566182,26.328186 6.73334982,26.372646 6.75250182,26.388378 C6.77096982,26.403426 6.81064182,26.388378 6.82774182,26.380854 C6.87151782,26.363754 6.89135382,26.337762 6.89682582,26.34255 C6.90366582,26.347338 6.89066982,26.38359 6.86399382,26.413002 C6.82500582,26.458146 6.79080582,26.450622 6.76823382,26.488242 C6.75044982,26.51697 6.74566182,26.562798 6.76481382,26.577846 C6.79901382,26.60589 6.90503382,26.528598 6.98164182,26.473194 C7.06508982,26.412318 7.10749782,26.381538 7.13554182,26.330238 C7.17110982,26.263206 7.16358582,26.211222 7.20052182,26.197542 C7.24292982,26.182494 7.27781382,26.240634 7.32227382,26.224218 C7.34347782,26.216694 7.35852582,26.183862 7.38793782,26.118198 C7.41119382,26.06553 7.42282182,26.038854 7.42145382,26.01765 C7.41734982,25.965666 7.37767782,25.948566 7.38862182,25.914366 C7.39340982,25.89795 7.40982582,25.887006 7.44197382,25.865118 C7.47685782,25.841862 7.48711782,25.843914 7.51105782,25.824762 C7.53568182,25.804926 7.53362982,25.794666 7.55756982,25.768674 C7.60271382,25.718058 7.65948582,25.698906 7.66222182,25.70301 C7.66427382,25.705746 7.62665382,25.72353 7.62802182,25.748838 C7.62870582,25.772094 7.66222182,25.776882 7.66495782,25.80219 C7.66837782,25.82955 7.63075782,25.848018 7.63622982,25.858962 C7.64238582,25.87059 7.68547782,25.845282 7.73951382,25.85349 C7.76824182,25.858278 7.79560182,25.876746 7.85168982,25.913682 C7.90914582,25.951302 7.91598582,25.96293 7.93308582,25.960194 C7.98164982,25.951986 7.99874982,25.840494 8.01242982,25.843914 C8.02474182,25.84665 7.99806582,25.94583 8.03568582,25.969086 C8.06304582,25.986186 8.09587782,25.946514 8.14444182,25.962246 C8.18274582,25.975926 8.17795782,26.004654 8.21147382,26.016282 C8.25319782,26.029962 8.27782182,25.989606 8.37358182,25.956774 C8.43172182,25.936938 8.48096982,25.93215 8.50217382,25.930098 C8.54936982,25.92531 8.55210582,25.930782 8.62050582,25.927362 C8.68274982,25.923942 8.74225782,25.915734 8.74362582,25.920522 C8.74430982,25.924626 8.71626582,25.928046 8.71489782,25.939674 C8.71352982,25.951986 8.74704582,25.965666 8.75798982,25.96977 C8.79492582,25.984818 8.83938582,26.002602 8.88863382,25.988238 C8.92351782,25.977978 8.94745782,25.953354 8.99533782,25.903422 C9.03500982,25.862382 9.06100182,25.825446 9.06852582,25.830234 C9.07468182,25.833654 9.06031782,25.852806 9.06578982,25.882218 C9.07126182,25.909578 9.08836182,25.912998 9.09246582,25.936254 C9.09930582,25.970454 9.06920982,25.984818 9.07399782,26.00739 C9.07810182,26.028594 9.10956582,26.04501 9.23336982,26.064162 C9.37564182,26.087418 9.39616182,26.07579 9.44404182,26.103834 C9.49807782,26.134614 9.48371382,26.155818 9.54869382,26.194122 C9.59794182,26.22285 9.60614982,26.211222 9.69643782,26.249526 C9.76415382,26.27757 9.80177382,26.302194 9.81613782,26.288514 C9.83050182,26.274834 9.80861382,26.232426 9.82297782,26.224218 C9.83050182,26.21943 9.83939382,26.231058 9.85580982,26.230374 C9.87838182,26.229006 9.90368982,26.206434 9.90368982,26.185914 C9.90437382,26.155818 9.85102182,26.129826 9.82844982,26.118198 C9.80587782,26.107254 9.79082982,26.103834 9.77509782,26.08605 C9.76141782,26.070318 9.75320982,26.049798 9.75868182,26.045694 C9.76552182,26.039538 9.79288182,26.07579 9.82229382,26.069634 C9.84418182,26.064846 9.84554982,26.04159 9.86333382,26.040906 C9.89000982,26.039538 9.91394982,26.090838 9.91600182,26.097678 C9.93515382,26.138718 9.92762982,26.166078 9.94609782,26.17497 C9.95772582,26.179758 9.97277382,26.174286 9.98166582,26.16813 C10.0035538,26.152398 9.99944982,26.120934 10.0083418,26.12025 C10.0172338,26.119566 10.0186018,26.149662 10.0425418,26.172918 C10.0630618,26.193438 10.0986298,26.205066 10.1123098,26.193438 C10.1294098,26.177706 10.1034178,26.12367 10.0999978,26.115462 C10.0835818,26.081262 10.0705858,26.076474 10.0363858,26.035434 C10.0322818,26.030646 9.98850582,25.97661 9.95567382,25.900002 C9.94746582,25.882218 9.93515382,25.852806 9.94062582,25.849386 C9.94336182,25.847334 9.95225382,25.852122 10.0008178,25.906158 C10.0548538,25.96635 10.0815298,25.996446 10.0945258,26.016282 C10.1198338,26.054586 10.1273578,26.07579 10.1547178,26.086734 C10.1704498,26.09289 10.1772898,26.088786 10.2046498,26.090838 C10.2046498,26.090838 10.2525298,26.094942 10.2969898,26.115462 C10.3270858,26.129142 10.3216138,26.135982 10.3913818,26.197542 C10.4378938,26.237898 10.4488378,26.242686 10.4809858,26.275518 C10.4864578,26.281674 10.4994538,26.296038 10.5254458,26.32545 C10.5610138,26.365806 10.5644338,26.36991 10.5678538,26.378118 C10.5835858,26.412318 10.5705898,26.432838 10.5856378,26.44515 C10.5986338,26.454042 10.6116298,26.44515 10.6403578,26.444466 C10.6697698,26.443098 10.6896058,26.45199 10.7238058,26.466354 C10.7751058,26.488926 10.7689498,26.504658 10.8236698,26.525862 C10.8571858,26.538858 10.8777058,26.540226 10.8913858,26.560062 C10.9084858,26.58537 10.8900178,26.603154 10.9036978,26.635302 C10.9214818,26.67771 10.9775698,26.704386 10.9974058,26.690706 C11.0131378,26.680446 11.0015098,26.644878 11.0104018,26.642826 C11.0192938,26.64009 11.0452858,26.676342 11.0528098,26.721486 C11.0617018,26.783046 11.0268178,26.804934 11.0411818,26.850078 C11.0541778,26.889066 11.0959018,26.92053 11.1164218,26.912322 C11.1417298,26.902746 11.1492538,26.832978 11.1205258,26.802882 C11.1054778,26.78715 11.0835898,26.785782 11.0829058,26.774154 C11.0829058,26.765262 11.0979538,26.760474 11.1164218,26.748846 C11.1690898,26.716014 11.1711418,26.668818 11.2019218,26.66745 C11.2101298,26.666766 11.2190218,26.672922 11.2368058,26.683866 C11.2621138,26.699598 11.2853698,26.714646 11.3093098,26.74269 C11.3216218,26.757738 11.3565058,26.799462 11.3626618,26.858286 C11.3667658,26.902062 11.3517178,26.921898 11.3681338,26.941734 C11.3872858,26.965674 11.4290098,26.963622 11.4283258,26.971146 C11.4283258,26.976618 11.4016498,26.973198 11.3927578,26.986878 C11.3783938,27.007398 11.4037018,27.070326 11.4488458,27.080586 C11.4844138,27.08811 11.5192978,27.060066 11.5363978,27.035442 C11.5452898,27.022446 11.5534978,27.00261 11.5439218,26.887698 C11.5377658,26.815878 11.5350298,26.78031 11.5254538,26.75979 Z" id="Stroke-148" stroke-width="1.026" fill="#FFFFFF"></path>
                        <path d="M34.1495746,9.616356 C34.1276866,9.602676 34.1030626,9.590364 34.0722826,9.580788 C33.9628426,9.545904 33.9149626,9.586944 33.8862346,9.550692 C33.8431426,9.495972 33.9450586,9.393372 34.0353466,9.159444 C34.0415026,9.145764 34.0387666,9.15192 34.1529946,8.777088 C34.2029266,8.614296 34.2419146,8.490492 34.3034746,8.486388 C34.3157866,8.485704 34.3185226,8.490492 34.3766626,8.513748 C34.4532706,8.544528 34.4915746,8.56026 34.5059386,8.55684 C34.5818626,8.539056 34.6447906,8.266824 34.5374026,8.042472 C34.4778946,7.919352 34.4313826,7.942608 34.3554586,7.813332 C34.2330226,7.606764 34.3253626,7.50006 34.2186586,7.277076 C34.2029266,7.244244 34.0715986,6.978168 33.9005986,6.979536 C33.8458786,6.979536 33.8041546,7.006896 33.5982706,7.220988 C33.3513466,7.477488 33.2870506,7.567092 33.2254906,7.54794 C33.1680346,7.530156 33.1304146,7.420032 33.1529866,7.337268 C33.1892386,7.207992 33.3602386,7.206624 33.3903346,7.066404 C33.4040146,7.003476 33.3746026,6.978852 33.4033306,6.915924 C33.4334266,6.848892 33.4813066,6.844788 33.5127706,6.783912 C33.5312386,6.750396 33.5339746,6.716196 33.5175586,6.591708 C33.4922506,6.40566 33.4799386,6.312636 33.4491586,6.249024 C33.3855466,6.115644 33.2938906,6.052032 33.3191986,6.009624 C33.3390346,5.975424 33.4053826,6.001416 33.4238506,5.969952 C33.4525786,5.922756 33.3540826,5.76954 33.2029186,5.691564 C33.0148186,5.594436 32.9033266,5.696352 32.7576346,5.58144 C32.6926546,5.53014 32.6782906,5.480208 32.5989466,5.456952 C32.5182346,5.432328 32.4929266,5.471316 32.4026386,5.446692 C32.3014066,5.418648 32.2884106,5.35572 32.2186426,5.364612 C32.1646066,5.370084 32.1536626,5.409072 32.0893666,5.409756 C32.0387506,5.409756 32.0052346,5.385132 31.9942906,5.398128 C31.9847146,5.411124 32.0134426,5.433696 32.0216506,5.46858 C32.0442226,5.563656 31.8875866,5.634792 31.9067386,5.720976 C31.9204186,5.779116 32.0072866,5.805108 31.9970266,5.829732 C31.9895026,5.849568 31.9368346,5.836572 31.9286266,5.856408 C31.9163146,5.887188 32.0209666,5.94738 32.0107066,5.966532 C32.0052346,5.975424 31.9730866,5.972688 31.9477786,5.959008 C31.9135786,5.939856 31.9122106,5.912496 31.8951106,5.90976 C31.8663826,5.904288 31.8205546,5.969268 31.7952466,6.04656 C31.7535226,6.175152 31.8267106,6.30648 31.7740426,6.339996 C31.7548906,6.352308 31.7418946,6.33726 31.7172706,6.348888 C31.6433986,6.384456 31.6769146,6.572556 31.6632346,6.573924 C31.6522906,6.575292 31.6030426,6.45012 31.6160386,6.285276 C31.6249306,6.167628 31.6604986,6.093756 31.6420306,6.08418 C31.6242466,6.075972 31.5681586,6.134112 31.5339586,6.201828 C31.4874466,6.296904 31.5189106,6.3441 31.4758186,6.383088 C31.4142586,6.438492 31.3171306,6.374196 31.2740386,6.424812 C31.2377866,6.469272 31.2993466,6.528096 31.2678826,6.61428 C31.2391546,6.694992 31.1693866,6.6861 31.1358706,6.755868 C31.0873066,6.858468 31.2145306,6.928236 31.2083746,7.080084 C31.2001666,7.261344 31.0141186,7.305804 31.0387426,7.447392 C31.0572106,7.556832 31.1762266,7.580772 31.1700706,7.690896 C31.1659666,7.760664 31.1174026,7.768188 31.1112466,7.848216 C31.1064586,7.909776 31.1310826,7.94808 31.1899066,8.063676 C31.2268426,8.13618 31.2569386,8.21142 31.2931906,8.283924 C31.3957906,8.487756 31.4464066,8.589672 31.4621386,8.627292 C31.5510586,8.842752 31.4949706,9.058896 31.4443546,9.262044 C31.4128906,9.388584 31.2904546,9.58284 31.0455826,9.969984 C31.0448986,9.970668 31.0442146,9.972036 31.0435306,9.97272 C30.9922306,10.054116 30.9375106,10.138932 30.8438026,10.155348 C30.7145266,10.17792 30.5914066,10.056852 30.5640466,10.029492 C30.5619946,10.02744 30.5599426,10.025388 30.5585746,10.023336 C30.5011186,9.965196 30.4812826,9.913212 30.4238266,9.7983 C30.2760826,9.498708 30.2617186,9.550008 30.2350426,9.450828 C30.2076826,9.348912 30.2172586,9.27504 30.2302546,9.20322 C30.2466706,9.11088 30.2678746,9.021276 30.2206786,8.881056 C30.1981066,8.812656 30.1851106,8.807868 30.1468066,8.69706 C30.1167106,8.610876 30.0749866,8.489124 30.0667786,8.36874 C30.0483106,8.10882 30.2022106,8.082828 30.1782706,7.841376 C30.1625386,7.688844 30.0941386,7.632756 30.1385986,7.532892 C30.1796386,7.441236 30.2781346,7.398144 30.2617186,7.334532 C30.2535106,7.3017 30.2240986,7.301016 30.2008426,7.263396 C30.1618546,7.1991 30.1933186,7.116336 30.2227306,7.03836 C30.2227306,7.037676 30.2795026,6.885144 30.3479026,6.691572 C30.4265626,6.469956 30.3916786,6.482952 30.4539226,6.349572 C30.4970146,6.256548 30.5476306,6.177204 30.5202706,6.147792 C30.5018026,6.12864 30.4587106,6.14232 30.4511866,6.144372 C30.3219106,6.185412 30.3492706,6.380352 30.1940026,6.605388 C30.1844266,6.619068 30.1208146,6.687468 29.9942746,6.823584 C29.8061746,7.026048 29.7890746,7.036308 29.7781306,7.030836 C29.7336706,7.008264 29.7637666,6.73056 29.9272426,6.595128 C29.9662306,6.563664 29.9970106,6.552036 30.0353146,6.502104 C30.0825106,6.43986 30.0790906,6.399504 30.1023466,6.325632 C30.1071346,6.3099 30.1139746,6.292116 30.1221826,6.27228 C30.1762186,6.144372 30.2165746,6.165576 30.2487226,6.058188 C30.2795026,5.95764 30.2466706,5.927544 30.2911306,5.84478 C30.3246466,5.78322 30.3526906,5.782536 30.3786826,5.715504 C30.4080946,5.640264 30.3998866,5.571864 30.4135666,5.570496 C30.4279306,5.569812 30.4292986,5.640948 30.4751266,5.662836 C30.5100106,5.679936 30.5531026,5.658732 30.5640466,5.653944 C30.6693826,5.602644 30.6598066,5.459004 30.7234186,5.45148 C30.7541986,5.447376 30.7911346,5.477472 30.7966066,5.506884 C30.8068666,5.56776 30.6755386,5.610852 30.6851146,5.676516 C30.6885346,5.703192 30.7158946,5.731236 30.7425706,5.732604 C30.7925026,5.734656 30.8157586,5.640264 30.9217786,5.473368 C30.9812866,5.37966 31.0106986,5.333148 31.0407946,5.315364 C31.1598106,5.247648 31.2651466,5.35572 31.3998946,5.288004 C31.4710306,5.252436 31.4484586,5.21892 31.5319066,5.162148 C31.6331386,5.093748 31.8020866,5.050656 31.9108426,5.118372 C31.9853986,5.164884 31.9792426,5.230548 32.0620066,5.257224 C32.1016786,5.27022 32.1693946,5.276376 32.2111186,5.240124 C32.2719946,5.185404 32.2220626,5.084856 32.2699426,5.05476 C32.3130346,5.026716 32.3711746,5.098536 32.4888226,5.124528 C32.6228866,5.155308 32.7897826,5.11632 32.8068826,5.049288 C32.8226146,4.988412 32.7213826,4.881708 32.6235706,4.874184 C32.5667986,4.87008 32.5216546,4.899492 32.4983986,4.875552 C32.4806146,4.857084 32.4949786,4.829724 32.4970306,4.787316 C32.5025026,4.689504 32.4402586,4.574592 32.3698066,4.559544 C32.3185066,4.5486 32.3000386,4.599216 32.2247986,4.588956 C32.1741826,4.5828 32.1646066,4.558176 32.1276706,4.566384 C32.0791066,4.57596 32.0743186,4.624524 32.0312266,4.627944 C31.9983946,4.629312 31.9936066,4.602636 31.9464106,4.59648 C31.9026346,4.58964 31.8923746,4.610844 31.8615946,4.604688 C31.8048226,4.594428 31.7535226,4.506876 31.7672026,4.437792 C31.7795146,4.372128 31.8438106,4.351608 31.8342346,4.328352 C31.8226066,4.299624 31.7138506,4.30236 31.6160386,4.338612 C31.5045466,4.378968 31.5148066,4.42206 31.4279386,4.444632 C31.3130266,4.474044 31.2678826,4.406328 31.1652826,4.451472 C31.1262946,4.468572 31.1174026,4.485672 31.0531066,4.513032 C30.9942826,4.537656 30.9737626,4.535604 30.9320386,4.549968 C30.8465386,4.580064 30.7562506,4.651884 30.7117906,4.744908 C30.6762226,4.820832 30.6823786,4.885128 30.6529666,4.889916 C30.6221866,4.895388 30.6050866,4.828356 30.5510506,4.822884 C30.5079586,4.81878 30.4949626,4.859136 30.4546066,4.8564 C30.4005706,4.851612 30.3950986,4.775004 30.3362746,4.744908 C30.2610346,4.70592 30.1994746,4.79484 30.0948226,4.795524 C29.9634946,4.796208 29.9409226,4.65804 29.7288826,4.51782 C29.6488546,4.465836 29.4669106,4.344768 29.3157466,4.40154 C29.2015186,4.444632 29.1618466,4.567752 29.1392746,4.556124 C29.1119146,4.542444 29.1762106,4.357764 29.2411906,4.217544 C29.3205346,4.04586 29.3622586,3.958992 29.4559666,3.918636 C29.5510426,3.877596 29.6413306,3.909744 29.6570626,3.868704 C29.6700586,3.835872 29.6290186,3.783204 29.5831906,3.756528 C29.4812746,3.69702 29.3102746,3.743532 29.2049386,3.84066 C29.0811346,3.955572 29.1242266,4.071168 28.9976866,4.140252 C28.9169746,4.184028 28.8581506,4.15872 28.8205306,4.214124 C28.7712826,4.286628 28.8383146,4.38102 28.7911186,4.423428 C28.7562346,4.45284 28.7165626,4.411116 28.6454266,4.424796 C28.5154666,4.44942 28.5188866,4.614948 28.3896106,4.651884 C28.2972706,4.677876 28.2473386,4.608108 28.1632066,4.646412 C28.1009626,4.673772 28.0688146,4.739436 28.0510306,4.792104 C28.0510306,4.792104 27.9450106,4.858452 27.8041066,4.919328 C27.7603306,4.93848 27.7138186,4.956948 27.6659386,4.971996 C27.5831746,4.999356 27.4073866,5.056128 27.3670306,4.999356 C27.3451426,4.967892 27.3848146,4.929588 27.3971266,4.813992 C27.4019146,4.777056 27.4176466,4.632732 27.3629266,4.606056 C27.3266746,4.588272 27.2842666,4.634784 27.1700386,4.696344 C27.0811186,4.744224 27.0605986,4.74012 26.9532106,4.786632 C26.6802946,4.90428 26.6023186,5.018508 26.5352866,4.983624 C26.4887746,4.959 26.4819346,4.881024 26.4819346,4.829724 C26.4826186,4.805784 26.4839866,4.787316 26.4846706,4.783896 C26.5113466,4.547916 26.7254386,4.463784 27.2924746,3.988404 C27.4942546,3.818772 27.4956226,3.805776 27.6207946,3.712068 C27.8937106,3.507552 28.0694986,3.435732 28.0530826,3.378276 C28.0421386,3.339972 27.9573226,3.357756 27.7056106,3.326292 C27.3902866,3.28662 27.3075226,3.2319 27.1502026,3.2832 C27.0776986,3.30714 27.0756466,3.325608 26.9682586,3.360492 C26.8389826,3.402216 26.7370666,3.435048 26.6454106,3.395376 C26.5640146,3.359808 26.5900066,3.309876 26.4709906,3.215484 C26.4292666,3.181968 26.2979386,3.077316 26.1960226,3.116304 C26.1454066,3.135456 26.1344626,3.176496 26.0988946,3.171024 C26.0510146,3.162132 26.0571706,3.08142 25.9846666,3.0438 C25.9395226,3.019176 25.9142146,3.041064 25.8827506,3.012336 C25.8444466,2.97882 25.8670186,2.935728 25.8382906,2.900844 C25.8047746,2.860488 25.7404786,2.872116 25.6173586,2.881008 C25.3779586,2.899476 25.3977946,2.872116 25.3266586,2.894688 C25.1748106,2.943936 25.1652346,3.042432 25.0592146,3.042432 C24.9682426,3.042432 24.9655066,2.970612 24.8369146,2.932308 C24.6891706,2.887848 24.6330826,2.963772 24.5140666,2.908368 C24.4162546,2.86254 24.3724786,2.772936 24.3615346,2.748996 C24.3040786,2.627928 24.3389626,2.5137 24.3478546,2.487024 L24.2548306,2.300976 L24.2527786,2.140236 L23.9928586,2.01438 L24.0140626,2.43162 L22.5940786,2.45214 L20.2185466,2.48634 C20.2185466,2.48634 16.3416346,2.24694 15.0297226,2.088936 L11.8751146,1.703844 C11.6275066,1.673748 11.3819506,1.636128 11.1370786,1.590984 L9.17399862,1.232568 L8.72119062,1.12518 L8.03445462,0.963756 L3.94755462,1.79824156e-13 C3.93729462,0.015048 3.92635062,0.032832 3.91609062,0.052668 C3.89215062,0.099864 3.88120662,0.138852 3.88531062,0.18126 C3.88736262,0.19494 3.89215062,0.233244 3.91882662,0.269496 C3.95371062,0.316692 3.99064662,0.31122 4.00432662,0.344736 C4.01869062,0.380304 3.98654262,0.405612 3.96875862,0.4617 C3.93250662,0.580032 4.00295862,0.688788 3.98722662,0.69426 C3.97833462,0.69768 3.94413462,0.651852 3.92635062,0.5985 C3.90925062,0.546516 3.91677462,0.517788 3.90514662,0.514368 C3.88462662,0.50958 3.82580262,0.590292 3.84632262,0.651852 C3.85384662,0.675108 3.86889462,0.681264 3.89488662,0.707256 C3.90788262,0.720252 3.98107062,0.794124 3.98927862,0.870732 C3.99885462,0.956916 3.92087862,0.983592 3.93934662,1.056096 C3.95302662,1.113552 4.00637862,1.113552 4.01663862,1.167588 C4.02621462,1.218888 3.98654262,1.255824 3.92977062,1.33722 C3.89967462,1.379628 3.83948262,1.466496 3.80254662,1.55952 C3.74167062,1.715472 3.78134262,1.811232 3.71294262,1.849536 C3.67737462,1.868688 3.62470662,1.865952 3.60760662,1.842012 C3.57340662,1.794132 3.69994662,1.681272 3.66232662,1.62108 C3.64180662,1.588932 3.60008262,1.61082 3.55630662,1.56978 C3.51253062,1.52874 3.49611462,1.452816 3.52279062,1.40562 C3.53510262,1.383048 3.54604662,1.387836 3.59871462,1.344744 C3.64659462,1.305072 3.67463862,1.284552 3.68284662,1.25172 C3.69173862,1.2141 3.67258662,1.197 3.66095862,1.13544 C3.64112262,1.030788 3.67121862,0.965808 3.64727862,0.95418 C3.62607462,0.945288 3.60623862,0.994536 3.55083462,1 C3.51116262,1.004112 3.46191462,0.98496 3.44960262,0.952812 C3.43729062,0.922032 3.46533462,0.898776 3.45302262,0.876204 C3.43592262,0.846108 3.36683862,0.855 3.33947862,0.857052 C3.27244662,0.863208 3.19378662,0.83448 3.03578262,0.77634 C2.87162262,0.716148 2.87230662,0.658008 2.58844662,0.463752 C2.46806262,0.381672 2.39350662,0.340632 2.35178262,0.309168 C2.33263062,0.339948 2.30800662,0.394668 2.27517462,0.515052 C2.23960662,0.64296 2.21156262,0.744192 2.24644662,0.852264 C2.27722662,0.950076 2.32168662,0.93366 2.35041462,1.02258 C2.39487462,1.15938 2.29432662,1.211364 2.29501062,1.4193 C2.29637862,1.564308 2.34494262,1.564992 2.32989462,1.697004 C2.31826662,1.805076 2.27927862,1.865268 2.31621462,1.92204 C2.35451862,1.98018 2.43865062,1.984968 2.43591462,2.006856 C2.43249462,2.028744 2.34494262,2.011644 2.30732262,2.061576 C2.27859462,2.099196 2.28680262,2.164176 2.31416262,2.2059 C2.35246662,2.266092 2.41129062,2.25036 2.43317862,2.295504 C2.47148262,2.374164 2.34562662,2.531484 2.30048262,2.516436 C2.26696662,2.504808 2.29295862,2.396736 2.26217862,2.388528 C2.23139862,2.38032 2.16163062,2.475396 2.15068662,2.5821 C2.14589862,2.632032 2.15684262,2.653236 2.16299862,2.710692 C2.16436662,2.72574 2.16573462,2.745576 2.16505062,2.772252 C2.16368262,2.813292 2.15752662,2.872116 2.13905862,2.962404 C2.02414662,3.50892 1.81963062,3.913164 1.81963062,3.913164 C1.74302262,4.06638 1.74781062,4.030128 1.67667462,4.171716 C1.45369062,4.614948 1.51456662,4.738752 1.34219862,5.138208 C1.16777862,5.542452 1.08091062,5.744916 0.881866623,5.90292 C0.818938623,5.953536 0.706078623,6.02946 0.679402623,6.162156 C0.655462623,6.287328 0.733438623,6.331788 0.715654623,6.482268 C0.695818623,6.646428 0.595270623,6.652584 0.594586623,6.794856 C0.593902623,6.907716 0.658198623,6.951492 0.672562623,7.041096 C0.675298623,7.060932 0.675982623,7.083504 0.673246623,7.108812 C0.662986623,7.197048 0.625366623,7.19568 0.600058623,7.297596 C0.559702623,7.459704 0.643150623,7.511004 0.624682623,7.666272 C0.608950623,7.806492 0.537130623,7.792128 0.450946623,8.011008 C0.368866623,8.218944 0.420850623,8.263404 0.341506623,8.370792 C0.237538623,8.510328 0.119890623,8.473392 0.0425986228,8.593092 C-0.0367453772,8.716212 0.0104506228,8.874216 0.0576466228,9.03222 C0.170506623,9.410472 0.381862623,9.512388 0.328510623,9.698436 C0.292258623,9.820872 0.191026623,9.80856 0.169138623,9.946044 C0.149986623,10.06506 0.217018623,10.135512 0.183502623,10.298988 C0.170506623,10.364652 0.158194623,10.361232 0.147250623,10.411848 C0.122626623,10.525392 0.162298623,10.645092 0.422902623,11.072592 C0.515242623,11.223756 0.551494623,11.277108 0.538498623,11.355084 C0.519346623,11.476836 0.397594623,11.550024 0.422902623,11.591748 C0.442054623,11.62458 0.511138623,11.581488 0.589798623,11.611584 C0.727966623,11.66562 0.743698623,11.888604 0.786790623,11.882448 C0.825094623,11.87766 0.792262623,11.698452 0.881182623,11.646468 C0.919486623,11.623896 0.946846623,11.645784 1.11784662,11.686824 C1.30115862,11.7306 1.35109062,11.724444 1.40444262,11.780532 C1.44343062,11.820888 1.48036662,11.889288 1.45984662,11.913228 C1.40854662,11.974788 1.04329062,11.694348 0.957790623,11.779164 C0.937270623,11.799684 0.942742623,11.83662 0.953686623,11.907756 C0.989938623,12.135528 1.09801062,12.239496 1.06517862,12.275748 C1.03713462,12.307212 0.921538623,12.273012 0.859978623,12.197772 C0.794998623,12.118428 0.812098623,12.019248 0.795682623,12.019248 C0.760798623,12.019932 0.738226623,12.21966 0.734806623,12.357144 C0.731386623,12.495312 0.723862623,12.80106 0.869554623,12.86946 C0.914698623,12.891348 0.935218623,12.870144 0.982414623,12.90024 C1.06791462,12.954276 1.08911862,13.076028 1.08227862,13.15674 C1.07954262,13.186836 1.07065062,13.292856 1.00293462,13.325688 C0.956422623,13.348944 0.925642623,13.314744 0.890074623,13.335264 C0.824410623,13.3722 0.833302623,13.541832 0.885970623,13.68 C0.934534623,13.808592 0.987202623,13.816116 1.07407062,13.951548 C1.20608262,14.156748 1.13015862,14.2101 1.24849062,14.407092 C1.37845062,14.625288 1.51798662,14.638968 1.51867062,14.781924 C1.51935462,14.898888 1.42701462,14.959764 1.46463462,15.047316 C1.49746662,15.12324 1.57544262,15.0993 1.61921862,15.166332 C1.70403462,15.29766 1.46531862,15.478236 1.51251462,15.761412 C1.52003862,15.809976 1.53577062,15.894792 1.60280262,15.945408 C1.68009462,16.002864 1.74028662,15.952932 1.88666262,15.982344 C2.04466662,16.015176 2.03440662,16.086312 2.23481862,16.147872 C2.36683062,16.187544 2.40376662,16.16634 2.47011462,16.21764 C2.54467062,16.275096 2.53372662,16.328448 2.60144262,16.441308 C2.62811862,16.485084 2.73003462,16.654032 2.90308662,16.719012 C3.06587862,16.780572 3.17531862,16.706016 3.22730262,16.779888 C3.26492262,16.833924 3.21362262,16.887276 3.25397862,17.037072 C3.26765862,17.090424 3.28407462,17.14788 3.32785062,17.164296 C3.37846662,17.183448 3.41471862,17.125992 3.47285862,17.122572 C3.56588262,17.117784 3.62744262,17.256636 3.75056262,17.457048 C3.96465462,17.805204 4.04399862,17.8182 4.05425862,17.976204 C4.06178262,18.082224 4.02689862,18.104112 4.02553062,18.281268 C4.02484662,18.418068 4.04399862,18.52956 4.06109862,18.602064 L4.09803462,18.665676 L6.43047462,18.896868 L6.40858662,18.934488 L6.37985862,18.983052 L6.28341462,19.015884 L6.27110262,19.134216 L9.53925462,20.9988 L11.3648506,21.242988 L12.1972786,21.35448 L12.2704666,20.87226 L13.6808746,21.055572 L13.8176746,21.073356 C13.9407946,21.14244 13.9907266,21.21768 14.0139826,21.274452 C14.0433946,21.348324 14.0249266,21.382524 14.0639146,21.42972 C14.1309466,21.509748 14.2253386,21.455712 14.3046826,21.531636 C14.3717146,21.595932 14.3231506,21.654756 14.3956546,21.747096 C14.4558466,21.825072 14.5044106,21.800448 14.5988026,21.890052 C14.6747266,21.961188 14.6630986,21.995388 14.7321826,22.075416 C14.8033186,22.157496 14.8402546,22.150656 14.9927866,22.252572 C15.1788346,22.376376 15.2718586,22.43862 15.3026386,22.549428 C15.3299986,22.64724 15.2786986,22.68144 15.3211066,22.781988 C15.3614626,22.877748 15.4223386,22.880484 15.4544866,22.968036 C15.4873186,23.053536 15.4428586,23.087052 15.4387546,23.214276 C15.4332826,23.383908 15.5023666,23.606208 15.6343786,23.653404 C15.6884146,23.67324 15.7212466,23.652036 15.7745986,23.68692 C15.8382106,23.729328 15.8204266,23.77926 15.8730946,23.838768 C15.9606466,23.937264 16.0776106,23.872284 16.1788426,23.974884 C16.2328786,24.029604 16.1993626,24.048072 16.2581866,24.118524 C16.3183786,24.190344 16.3984066,24.219756 16.5584626,24.279264 C16.5721426,24.284052 16.6241266,24.2991 16.7287786,24.330564 C16.8477946,24.366132 16.8703666,24.371604 16.8929386,24.358608 C16.9387666,24.331248 16.9073026,24.272424 16.9558666,24.191712 C17.0010106,24.11784 17.0502586,24.127416 17.1166066,24.045336 C17.1419146,24.013188 17.1494386,23.994036 17.1897946,23.897592 C17.3135986,23.606892 17.3327506,23.589792 17.3539546,23.57748 C17.4298786,23.53302 17.4716026,23.589108 17.5926706,23.537808 C17.6836426,23.499504 17.6829586,23.458464 17.7479386,23.439996 C17.8553266,23.409216 17.9004706,23.507712 18.0666826,23.554224 C18.2882986,23.616468 18.4073146,23.498136 18.5331706,23.597316 C18.5783146,23.634252 18.5653186,23.652036 18.6316666,23.736168 C18.7260586,23.857236 18.8122426,23.894856 18.9025306,23.963256 C19.1255146,24.132204 19.2301666,24.380496 19.2766786,24.492672 C19.3307146,24.619896 19.3327666,24.679404 19.4093746,24.803892 C19.4654626,24.894864 19.4996626,24.920856 19.5297586,25.006356 C19.5769546,25.142472 19.5256546,25.177356 19.5721666,25.251912 C19.6467226,25.368192 19.8033586,25.32852 19.8464506,25.436592 C19.8710746,25.49952 19.8231946,25.524144 19.8478186,25.602804 C19.8738106,25.682148 19.9305826,25.676676 20.0222386,25.77996 C20.1186826,25.8894 20.0892706,25.933176 20.1781906,26.003628 C20.2520626,26.061768 20.2889986,26.0433 20.3355106,26.103492 C20.3751826,26.155476 20.4045946,26.242344 20.3717626,26.303904 C20.3437186,26.357256 20.2862626,26.359308 20.2869466,26.390088 C20.2876306,26.433864 20.3984386,26.433864 20.4333226,26.506368 C20.4613666,26.563824 20.4100666,26.602812 20.4086986,26.683524 C20.4059626,26.812116 20.5352386,26.827164 20.6268946,27.00774 C20.7164986,27.184212 20.6638306,27.309384 20.7623266,27.362052 C20.8197826,27.393516 20.8512466,27.357948 20.9299066,27.395568 C21.0249826,27.441396 21.0113026,27.508428 21.0899626,27.55152 C21.2089786,27.617184 21.2978986,27.498168 21.4128106,27.56178 C21.5058346,27.61308 21.5099386,27.723888 21.5981746,27.731412 C21.6351106,27.734148 21.6569986,27.717048 21.6973546,27.73278 C21.7466026,27.751932 21.7472866,27.7875 21.7842226,27.793656 C21.8300506,27.800496 21.8498866,27.750564 21.8998186,27.74988 C21.9497506,27.749196 21.9866866,27.798444 22.0058386,27.821016 C22.1323786,27.973548 22.3909306,28.084356 22.4545426,28.033056 C22.4887426,28.005012 22.4463346,27.946872 22.4880586,27.898992 C22.5482506,27.830592 22.6898386,27.890784 22.7083066,27.848376 C22.7219866,27.817596 22.6487986,27.78408 22.5933946,27.673272 C22.5626146,27.611028 22.5762946,27.60282 22.5434626,27.513216 C22.4935306,27.378468 22.4593306,27.386676 22.4312866,27.289548 C22.4032426,27.195156 22.4360746,27.186948 22.4046106,27.043308 C22.3861426,26.96328 22.3772506,26.923608 22.3444186,26.882568 C22.3266346,26.859996 22.3109026,26.849052 22.3081666,26.825112 C22.3026946,26.787492 22.3327906,26.762868 22.3669906,26.71362 C22.3779346,26.697888 22.4271826,26.627436 22.4422306,26.546724 C22.4538586,26.481744 22.4319706,26.47422 22.4340226,26.372304 C22.4347066,26.344944 22.4360746,26.285436 22.4545426,26.217036 C22.4894266,26.089128 22.5420946,26.074764 22.5352546,25.997472 C22.5318346,25.955064 22.5126826,25.922232 22.4777986,25.861356 C22.4319706,25.782696 22.3970866,25.760808 22.4059786,25.744392 C22.4278666,25.701984 22.6754746,25.81074 22.7083066,25.754652 C22.7178826,25.739604 22.6994146,25.729344 22.7000986,25.688988 C22.7000986,25.650684 22.7171986,25.630848 22.7869666,25.527564 C22.8389506,25.450272 22.8410026,25.4448 22.8567346,25.432488 C22.9080346,25.390764 22.9415506,25.405812 22.9873786,25.380504 C23.1016066,25.31826 23.0933986,25.118532 23.1303346,25.120584 C23.1488026,25.121268 23.1433306,25.171884 23.1809506,25.194456 C23.2308826,25.223184 23.3177506,25.182144 23.3642626,25.128108 C23.3813626,25.108272 23.4128266,25.072704 23.4073546,25.029612 C23.4005146,24.960528 23.3054386,24.920172 23.3136466,24.905808 C23.3204866,24.893496 23.3820466,24.932484 23.4169306,24.906492 C23.4483946,24.88392 23.4319786,24.828516 23.4566026,24.820308 C23.4764386,24.812784 23.4908026,24.852456 23.5311586,24.85998 C23.5851946,24.868872 23.6200786,24.807996 23.6501746,24.821676 C23.6795866,24.83604 23.6556466,24.898284 23.6857426,24.91812 C23.7172066,24.939324 23.7801346,24.89076 23.8779466,24.831936 C23.8779466,24.831936 23.9784946,24.772428 24.0831466,24.725232 C24.2479906,24.652044 24.2746666,24.6924 24.4032586,24.628104 C24.4819186,24.588432 24.5940946,24.532344 24.6276106,24.424956 C24.6577066,24.32646 24.6084586,24.225228 24.6488146,24.204024 C24.6659146,24.195132 24.6789106,24.21018 24.7096906,24.2136 C24.8047666,24.222492 24.9292546,24.106212 24.9196786,24.012504 C24.9162586,23.98104 24.9012106,23.981724 24.8540146,23.896224 C24.8088706,23.816196 24.7862986,23.77584 24.7979266,23.740956 C24.8061346,23.716332 24.8485426,23.695128 24.9319906,23.65272 C25.0441666,23.597316 25.0640026,23.598684 25.0769986,23.607576 C25.1098306,23.628096 25.1009386,23.692392 25.1009386,23.69718 C25.0879426,23.786784 25.0010746,23.805936 25.0031266,23.866812 C25.0044946,23.911956 25.0523746,23.961888 25.1009386,23.968728 C25.1789146,23.978988 25.2062746,23.870232 25.3478626,23.811408 C25.4162626,23.78268 25.4183146,23.805252 25.5168106,23.777892 C25.6276186,23.747796 25.6645546,23.708808 25.7432146,23.663664 C25.7664706,23.650668 25.7931466,23.636988 25.8266626,23.622624 C25.9443106,23.57064 26.0441746,23.556276 26.1200986,23.544648 C26.2575826,23.524128 26.3629186,23.5296 26.4313186,23.533704 C26.5195546,23.538492 26.6399386,23.545332 26.7828946,23.590476 C26.9853586,23.654088 26.9976706,23.719752 27.1625146,23.74506 C27.2753746,23.762844 27.2582746,23.729328 27.4326946,23.736852 C27.6693586,23.745744 27.7856386,23.81004 27.8711386,23.73822 C27.8759266,23.734116 27.9224386,23.69376 27.9121786,23.661612 C27.9060226,23.63904 27.8779786,23.633568 27.8171026,23.613732 C27.6502066,23.559696 27.6372106,23.530284 27.6344746,23.51934 C27.6276346,23.496084 27.6378946,23.469408 27.6536266,23.455044 C27.6645706,23.446152 27.6871426,23.432472 27.7911106,23.459832 C27.8670346,23.479668 27.9114946,23.491296 27.9634786,23.524128 C28.0592386,23.585004 28.0359826,23.626728 28.1023306,23.661612 C28.2240826,23.72454 28.3588306,23.616468 28.4197066,23.684184 C28.4456986,23.712912 28.4443306,23.758056 28.4443306,23.766264 C28.4436466,23.826456 28.4012386,23.846976 28.4032906,23.894856 C28.4060266,23.945472 28.4552746,23.981724 28.4730586,23.99472 C28.5407746,24.043968 28.5859186,24.01524 28.7261386,24.038496 C28.8677266,24.061752 28.9026106,24.104844 28.9648546,24.076116 C29.0011066,24.0597 28.9970026,24.040548 29.0640346,23.964624 C29.1406426,23.87844 29.1905746,23.821668 29.2589746,23.8203 C29.3075386,23.819616 29.3602066,23.846292 29.3882506,23.88528 C29.4279226,23.938632 29.4019306,23.989932 29.4422866,24.019344 C29.4723826,24.041232 29.5195786,24.037128 29.5510426,24.01866 C29.5941346,23.991984 29.6112346,23.937264 29.6009746,23.89896 C29.5893466,23.859288 29.5517266,23.846292 29.5578826,23.81688 C29.5606186,23.79978 29.5749826,23.798412 29.5913986,23.77926 C29.6262826,23.736852 29.5989226,23.697864 29.6221786,23.65614 C29.6474866,23.61168 29.7179386,23.585004 29.7753946,23.604156 C29.8068586,23.6151 29.8437946,23.641776 29.8526866,23.68008 C29.8629466,23.720436 29.8342186,23.74164 29.8478986,23.764212 C29.8622626,23.788836 29.9033026,23.773788 29.9833306,23.784732 C30.0489946,23.794308 30.0961906,23.814144 30.1228666,23.825772 C30.1645906,23.843556 30.2063146,23.862024 30.2466706,23.903064 C30.2637706,23.91948 30.2972866,23.954364 30.3143866,24.0084 C30.3383266,24.082272 30.3157546,24.143832 30.3260146,24.146568 C30.3431146,24.151356 30.3759466,23.989932 30.4375066,23.985144 C30.4963306,23.980356 30.5496826,24.122628 30.5756746,24.111684 C30.5955106,24.104844 30.5640466,24.026184 30.6030346,23.991984 C30.6310786,23.966676 30.6721186,23.985144 30.6919546,23.958468 C30.6994786,23.94684 30.7022146,23.930424 30.6926386,23.896224 C30.6871666,23.873652 30.6502306,23.740272 30.5332666,23.69718 C30.4799146,23.677344 30.4607626,23.695128 30.3841546,23.692392 C30.2801866,23.688972 30.2104186,23.652036 30.0701986,23.57748 C29.9511826,23.514552 29.8171186,23.443416 29.8280626,23.383224 C29.8314826,23.362704 29.8513186,23.342868 29.8718386,23.340816 C29.9149306,23.336028 29.9375026,23.414688 29.9771746,23.411268 C30.0100066,23.409216 30.0093226,23.355864 30.0510466,23.316876 C30.1331266,23.239584 30.2692426,23.319612 30.3068626,23.261472 C30.3335386,23.221116 30.3000226,23.12946 30.2466706,23.100048 C30.2220466,23.086368 30.1981066,23.08842 30.1857946,23.066532 C30.1727986,23.043276 30.1905826,23.025492 30.1851106,22.994028 C30.1782706,22.957092 30.1420186,22.915368 30.1078186,22.914684 C30.0346306,22.912632 29.9942746,23.097996 29.9333986,23.089104 C29.9156146,23.086368 29.9033026,23.066532 29.9012506,23.063112 C29.8868866,23.039856 29.8916746,23.009076 29.9080906,22.96872 C29.9121946,22.95846 29.9169826,22.948884 29.9217706,22.939992 C29.9628106,22.860648 30.0216346,22.80798 30.0277906,22.803192 C30.1447546,22.700592 30.2617186,22.64382 30.3205426,22.617144 C30.4498186,22.559688 30.5147986,22.53096 30.6023506,22.532328 C30.6734866,22.533012 30.7145266,22.55148 30.7883986,22.528224 C30.8526946,22.508388 30.8656906,22.480344 30.9169906,22.481028 C30.9710266,22.481712 30.9929146,22.51386 31.0250626,22.526172 C31.0346386,22.529592 31.0455826,22.531644 31.0585786,22.529592 C31.1235586,22.521384 31.1269786,22.441356 31.1912746,22.433832 C31.2507826,22.426992 31.2801946,22.491972 31.3410706,22.478976 C31.3739026,22.471452 31.3951066,22.44546 31.4067346,22.429728 C31.4936026,22.31892 31.4128906,22.169124 31.4682946,22.138344 C31.5045466,22.117824 31.5791026,22.15818 31.5859426,22.19922 C31.5920986,22.231368 31.5517426,22.242996 31.5490066,22.290192 C31.5449026,22.343544 31.5948346,22.39074 31.6085146,22.403736 C31.6502386,22.442724 31.6762306,22.435884 31.6899106,22.465296 C31.7124826,22.512492 31.6557106,22.5549 31.6728106,22.583628 C31.6912786,22.615776 31.7884066,22.610988 31.8985306,22.569948 C31.9484626,22.55148 32.0004466,22.526172 32.0496946,22.494024 C32.0797906,22.473504 32.1050986,22.451616 32.1557146,22.408524 C32.3362906,22.252572 32.3828026,22.162284 32.4505186,22.176648 C32.4819826,22.183488 32.5100266,22.212216 32.5113946,22.238208 C32.5148146,22.301136 32.3622826,22.351752 32.3670706,22.364064 C32.3704906,22.370904 32.4265786,22.357908 32.4942946,22.330548 C32.5873186,22.292244 32.5914226,22.271724 32.6646106,22.242312 C32.7651586,22.20264 32.7774706,22.234104 32.8527106,22.194432 C32.9258986,22.155444 32.9614666,22.10004 32.9949826,22.114404 C33.0182386,22.124664 33.0107146,22.156128 33.0353386,22.166388 C33.0688546,22.180068 33.0982666,22.1274 33.1543546,22.123296 C33.2165986,22.118508 33.2767906,22.176648 33.2699506,22.194432 C33.2617426,22.217004 33.1420426,22.158864 33.0462826,22.220424 C33.0271306,22.232736 32.9874586,22.263516 32.9942986,22.283352 C33.0093466,22.327812 33.2213866,22.225896 33.4388986,22.30524 C33.5818546,22.357224 33.6735106,22.468716 33.6967666,22.446828 C33.7083946,22.435884 33.6953986,22.398264 33.6796666,22.375008 C33.6557266,22.33944 33.6276826,22.341492 33.6085306,22.307292 C33.5941666,22.281984 33.5907466,22.245048 33.6037426,22.237524 C33.6242626,22.223844 33.6639346,22.297716 33.7357546,22.303872 C33.8075746,22.310712 33.8650306,22.245732 33.8725546,22.254624 C33.8814466,22.265568 33.7637986,22.349016 33.7808986,22.398264 C33.8000506,22.450248 33.9683146,22.435884 33.9696826,22.454352 C33.9696826,22.46598 33.9026506,22.468716 33.8985466,22.490604 C33.8923906,22.523436 34.0503946,22.533696 34.0880146,22.632876 C34.1215306,22.721796 34.0558666,22.786092 34.0900666,22.830552 C34.1434186,22.90032 34.3910266,22.864068 34.5681826,22.730004 C34.7138746,22.61988 34.7514946,22.490604 34.8889786,22.480344 C34.9423306,22.47624 34.9895266,22.491288 35.0285146,22.457772 C35.0750266,22.417416 35.0462986,22.362696 35.0804986,22.30182 C35.1324826,22.211532 35.2918546,22.160232 35.3958226,22.204692 C35.4950026,22.247784 35.4997906,22.357224 35.6003386,22.371588 C35.6536906,22.379112 35.6632666,22.349016 35.7084106,22.362696 C35.7850186,22.385268 35.7699706,22.476924 35.8677826,22.56174 C35.9354986,22.61988 35.9724346,22.602096 35.9984266,22.652712 C36.0374146,22.727952 35.9779066,22.812084 36.0121066,22.836708 C36.0374146,22.855176 36.0702466,22.8114 36.1331746,22.812084 C36.1625866,22.812084 36.1988386,22.823028 36.3486346,22.96188 C36.4546546,23.060376 36.4580746,23.075424 36.4956946,23.085 C36.5866666,23.109624 36.6584866,23.04738 36.6933706,23.082948 C36.7166266,23.106888 36.6865306,23.1363 36.7022626,23.191704 C36.7309906,23.2902 36.8643706,23.3244 36.8541106,23.3586 C36.8486386,23.37228 36.8274346,23.366808 36.8171746,23.383224 C36.7959706,23.418792 36.8773666,23.48856 36.9163546,23.562432 C36.9546586,23.636304 36.9402946,23.69376 36.9231946,23.855184 C36.8978866,24.092532 36.8828386,24.24096 36.9163546,24.409908 C36.9334546,24.493356 36.9635506,24.636996 37.0524706,24.66162 C37.0866706,24.670512 37.1311306,24.662304 37.1413906,24.639732 C37.1591746,24.599376 37.0401586,24.546024 37.0340026,24.436584 C37.0319506,24.407856 37.0381066,24.359976 37.0654666,24.348348 C37.0928266,24.336036 37.1331826,24.36408 37.1550706,24.39144 C37.1988466,24.447528 37.1803786,24.520716 37.1961106,24.523452 C37.2159466,24.526872 37.2344146,24.427008 37.2686146,24.426324 C37.2939226,24.42564 37.3267546,24.482412 37.3260706,24.537816 C37.3253866,24.605532 37.2775066,24.622632 37.2186826,24.727968 C37.1967946,24.766956 37.1249746,24.894864 37.1687506,24.949584 C37.1947426,24.981732 37.2467266,24.966 37.2617746,25.000884 C37.2768226,25.035084 37.2303106,25.063128 37.2426226,25.100748 C37.2583546,25.148628 37.3452226,25.132212 37.3725826,25.1883 C37.3917346,25.226604 37.3595866,25.251228 37.3780546,25.296372 C37.3944706,25.33536 37.4279866,25.334676 37.4792866,25.371612 C37.5839386,25.4448 37.5716266,25.534404 37.6468666,25.550136 C37.6817506,25.55766 37.7248426,25.5474 37.7398906,25.521408 C37.7651986,25.477632 37.7009026,25.398288 37.7138986,25.389396 C37.7234746,25.382556 37.7508346,25.427016 37.7870866,25.42428 C37.8281266,25.421544 37.8465946,25.363404 37.8595906,25.367508 C37.8780586,25.374348 37.8185506,25.502256 37.8575386,25.637004 C37.8650626,25.662312 37.8890026,25.741656 37.9437226,25.75602 C37.9943386,25.7697 38.0449546,25.721136 38.0565826,25.734816 C38.0702626,25.750548 37.9991266,25.816212 38.0175946,25.847676 C38.0305906,25.870248 38.0764186,25.849728 38.1106186,25.875036 C38.1482386,25.902396 38.1420826,25.960536 38.1441346,26.011152 C38.1489226,26.126748 38.1968026,26.264232 38.2768306,26.334684 C38.3103466,26.364096 38.3705386,26.38188 38.4916066,26.417448 C38.6195146,26.454384 38.6961226,26.459172 38.7269026,26.51868 C38.7440026,26.55288 38.7296386,26.569296 38.7522106,26.602812 C38.7864106,26.65548 38.8356586,26.639748 38.8862746,26.678052 C38.9731426,26.7444 38.9211586,26.861364 39.0018706,26.909928 C39.0408586,26.933184 39.0565906,26.907876 39.1427746,26.928396 C39.2275906,26.948232 39.3110386,26.996796 39.3055666,27.019368 C39.3007786,27.039204 39.2255386,27.042624 39.1721866,27.036468 C39.0880546,27.026892 39.0490666,26.992008 39.0305986,27.009792 C39.0134986,27.026208 39.0292306,27.077508 39.0559066,27.109656 C39.1010506,27.16506 39.1838146,27.174636 39.2419546,27.164376 C39.3014626,27.154116 39.2987266,27.130176 39.3828586,27.098712 C39.4799866,27.06246 39.4929826,27.08982 39.5600146,27.056988 C39.6461986,27.013896 39.6544066,26.95302 39.7207546,26.950968 C39.7501666,26.9496 39.7877866,26.95986 39.8021506,26.986536 C39.8158306,27.012528 39.8007826,27.044676 39.7706866,27.098712 C39.6974986,27.231408 39.6489346,27.289548 39.6557746,27.296388 C39.6639826,27.30528 39.7563226,27.248508 39.8322466,27.150012 C39.8561866,27.117864 39.9875146,26.946864 39.9293746,26.81622 C39.9095386,26.773128 39.8910706,26.78202 39.8678146,26.732088 C39.8240386,26.63838 39.8575546,26.534412 39.8808106,26.463276 C39.9074866,26.3853 39.9368986,26.343576 39.9567346,26.305956 C39.9936706,26.235504 40.0135066,26.14932 39.9710986,25.799796 C39.9389506,25.529616 39.9225346,25.394184 39.8814946,25.26696 C39.8137786,25.059708 39.7241746,24.9147 39.6420946,24.784056 C39.5429146,24.624684 39.5347066,24.645888 39.3472906,24.38118 C39.3144586,24.334668 39.1797106,24.143148 39.0312826,23.882544 C38.8794346,23.615784 38.8712266,23.554224 38.8821706,23.5467 C38.8958506,23.538492 38.9389426,23.60142 38.9676706,23.590476 C39.0080266,23.574744 38.9950306,23.431104 38.9731426,23.340816 C38.9115826,23.08842 38.7234826,23.062428 38.4731386,22.766256 C38.4464626,22.735476 38.3281306,22.538484 38.0907826,22.143816 C37.9334626,21.882528 37.9204666,21.854484 37.9061026,21.808656 C37.8595906,21.666384 37.8623266,21.561048 37.7672506,21.488544 C37.7569906,21.48102 37.7480986,21.475548 37.7398906,21.47076 C37.7070586,21.452292 37.6790146,21.444768 37.6311346,21.401676 C37.6154026,21.387312 37.5086986,21.290868 37.5340066,21.22452 C37.5435826,21.199212 37.5613666,21.203316 37.5907786,21.17322 C37.6434466,21.117132 37.6667026,21.015216 37.6283986,20.961864 C37.5948826,20.915352 37.5223786,20.918088 37.5230626,20.894832 C37.5230626,20.87568 37.5702586,20.874996 37.5791506,20.845584 C37.5914626,20.804544 37.5093826,20.754612 37.5216946,20.734092 C37.5285346,20.722464 37.5572626,20.740248 37.5900946,20.729988 C37.6605466,20.707416 37.6762786,20.578824 37.6769626,20.571984 C37.6865386,20.487852 37.6489186,20.481012 37.6591786,20.40372 C37.6708066,20.3148 37.7303146,20.25324 37.7104786,20.234088 C37.6995346,20.224512 37.6803826,20.240244 37.6619146,20.227248 C37.6366066,20.210148 37.6352386,20.156796 37.6523386,20.14722 C37.6694386,20.13696 37.6926946,20.17116 37.7132146,20.162268 C37.7344186,20.153376 37.7385226,20.10618 37.7282626,20.069928 C37.7152666,20.019996 37.6769626,19.994688 37.6831186,19.98648 C37.6906426,19.97622 37.7371546,20.01726 37.7686186,20.001528 C37.7775106,19.99674 37.7836666,19.987848 37.7891386,19.97622 C37.8007666,19.950912 37.8007666,19.913292 37.7829826,19.892772 C37.7590426,19.86336 37.7077426,19.875672 37.7063746,19.865412 C37.7050066,19.8531 37.7788786,19.847628 37.8513826,19.795644 C37.8753226,19.77786 37.9245706,19.742976 37.9266226,19.694412 C37.9273066,19.667736 37.9136266,19.663632 37.9013146,19.622592 C37.8869506,19.57266 37.8828466,19.498104 37.9122586,19.481688 C37.9409866,19.465956 37.9786066,19.520676 38.0134906,19.504944 C38.0422186,19.491948 38.0558986,19.437228 38.0408506,19.396188 C38.0196466,19.339416 37.9553506,19.349676 37.9184146,19.292904 C37.8739546,19.22382 37.9088386,19.118484 37.9286746,19.116432 C37.9457746,19.115064 37.9457746,19.1862 38.0073346,19.272384 C38.0387986,19.31616 38.0805226,19.3743 38.1331906,19.371564 C38.1961186,19.36746 38.2563106,19.280592 38.2405786,19.209456 C38.2303186,19.161576 38.1879106,19.134216 38.1749146,19.126008 C38.1037786,19.079496 38.0230666,19.102068 38.0216986,19.091124 C38.0203306,19.081548 38.0880466,19.048716 38.1742306,19.050084 C38.2754626,19.050768 38.3055586,19.096596 38.3842186,19.079496 C38.4382546,19.068552 38.4881866,19.034352 38.4847666,19.010412 C38.4813466,18.981684 38.4026866,18.98784 38.3828506,18.939276 C38.3719066,18.911232 38.3842186,18.872928 38.4026866,18.866772 C38.4300466,18.85788 38.4498826,18.925596 38.5004986,18.937908 C38.5859986,18.959796 38.7344266,18.81684 38.7125386,18.719028 C38.6954386,18.641736 38.5743706,18.60822 38.5818946,18.591804 C38.5880506,18.57744 38.6776546,18.632844 38.7672586,18.606168 C38.8657546,18.57744 38.9279986,18.461844 38.9594626,18.403704 C38.9998186,18.328464 39.0093946,18.271008 39.0627466,18.253908 C39.0928426,18.244332 39.1325146,18.248436 39.1434586,18.22518 C39.1502986,18.209448 39.1379866,18.198504 39.1468786,18.18072 C39.1564546,18.160884 39.1769746,18.164304 39.1913386,18.147888 C39.2166466,18.119844 39.1947586,18.06102 39.1899706,18.048024 C39.1619266,17.9721 39.0996826,17.946792 39.1085746,17.928324 C39.1160986,17.909856 39.1769746,17.942688 39.2248546,17.919432 C39.2891506,17.887968 39.2699986,17.784 39.3028306,17.661564 C39.3349786,17.543916 39.4006426,17.46252 39.4615186,17.396856 C39.4738306,17.383176 39.4861426,17.37018 39.4977706,17.357868 C39.5791666,17.273736 39.6715066,17.17866 39.8144626,17.146512 C39.9615226,17.11368 40.1051626,17.159508 40.1291026,17.10342 C40.1400466,17.078112 40.1167906,17.054856 40.1325226,17.0145 C40.1489386,16.97346 40.1892946,16.957044 40.2084466,16.945416 C40.3288306,16.875648 40.2378586,16.66224 40.3650826,16.482348 C40.4327986,16.386588 40.4957266,16.392744 40.5203506,16.300404 C40.5456586,16.20738 40.5066706,16.109568 40.5148786,16.107516 C40.5224026,16.105464 40.5312946,16.204644 40.5846466,16.223112 C40.6386826,16.242264 40.7337586,16.175916 40.7447026,16.105464 C40.7501746,16.071264 40.7337586,16.043904 40.7481226,16.03296 C40.7665906,16.01928 40.7960026,16.061004 40.8370426,16.056216 C40.8972346,16.049376 40.8986026,15.952932 40.9649506,15.934464 C41.0169346,15.9201 41.0415586,15.9714 41.0990146,15.96114 C41.1544186,15.952248 41.1612586,15.900264 41.2228186,15.835284 C41.3329426,15.71832 41.4307546,15.75936 41.4916306,15.656076 C41.5360906,15.580152 41.5237786,15.490548 41.5100986,15.487128 C41.4936826,15.483024 41.4758986,15.604092 41.4061306,15.620508 C41.3411506,15.63624 41.2734346,15.548688 41.2481266,15.568524 C41.2289746,15.584256 41.2631746,15.6465 41.2433386,15.660864 C41.2276066,15.671808 41.2036666,15.63624 41.1639946,15.635556 C41.1120106,15.634188 41.1010666,15.703272 41.0217226,15.744996 C40.9567426,15.779196 40.9020226,15.808608 40.8527746,15.78672 C40.7720626,15.75252 40.7556466,15.604092 40.7864266,15.586992 C40.8165226,15.570576 40.8705586,15.693012 40.9587946,15.689592 C41.0778106,15.684804 41.1968266,15.449508 41.1393706,15.3729 C41.1250066,15.353748 41.0901226,15.347592 41.0217226,15.33528 C40.8992866,15.315444 40.8657706,15.333228 40.7973706,15.309972 C40.7125546,15.281244 40.6503106,15.214212 40.6592026,15.197112 C40.6756186,15.165648 40.9307506,15.31134 41.0066746,15.231312 C41.0511346,15.1848 41.0148826,15.080832 41.0333506,15.076728 C41.0545546,15.07194 41.0901226,15.216948 41.1373186,15.214212 C41.1605746,15.213528 41.1605746,15.179328 41.1893026,15.165648 C41.2583866,15.132816 41.3486746,15.27714 41.4348586,15.255252 C41.4888946,15.241572 41.5148866,15.168384 41.5306186,15.123924 C41.5784986,14.98644 41.5237786,14.869476 41.5641346,14.850324 C41.5928626,14.836644 41.6263786,14.892732 41.6633146,14.879736 C41.7070906,14.864004 41.7187186,14.763456 41.6995666,14.686848 C41.6790466,14.604768 41.6120146,14.5008 41.5360906,14.50764 C41.4854746,14.512428 41.4540106,14.56578 41.4519586,14.5692 C41.4068146,14.64786 41.4635866,14.746356 41.4375946,14.759352 C41.4252826,14.765508 41.4027106,14.748408 41.3890306,14.731992 C41.3466226,14.679324 41.3951866,14.619816 41.3609866,14.553468 C41.3404666,14.513796 41.2925866,14.476176 41.2535986,14.482332 C41.2064026,14.489856 41.2043506,14.552784 41.1414226,14.577408 C41.1065386,14.591772 41.0867026,14.580828 41.0483986,14.580828 C40.9061266,14.580828 40.8281506,14.731308 40.7809546,14.706 C40.7535946,14.690952 40.7864266,14.640336 40.7576986,14.547312 C40.7289706,14.45634 40.6763026,14.440608 40.6763026,14.370156 C40.6769866,14.3127 40.7118706,14.258664 40.7303386,14.260716 C40.7474386,14.262768 40.7426506,14.314068 40.7700106,14.392728 C40.7925826,14.458392 40.8185746,14.532948 40.8664546,14.544576 C40.9163866,14.556204 40.9355386,14.488488 41.0812306,14.413932 C41.1024346,14.402988 41.1318466,14.389308 41.1769906,14.362632 C41.2768546,14.305176 41.2823266,14.287392 41.2836946,14.279184 C41.2925866,14.223096 41.1810946,14.164272 41.1879346,14.154012 C41.1954586,14.1417 41.3390986,14.246352 41.3856106,14.208048 C41.4109186,14.187528 41.4033946,14.13144 41.3869786,14.093136 C41.3726146,14.062356 41.3493586,14.039784 41.3261026,14.022 C41.2809586,13.9878 41.2317106,13.972068 41.2358146,13.94676 C41.2385506,13.92624 41.2706986,13.92966 41.2980586,13.901616 C41.3514106,13.84758 41.3329426,13.729248 41.2919026,13.653324 C41.2467586,13.569876 41.1728866,13.534992 41.1044866,13.502844 C41.0018866,13.45428 40.8568786,13.420764 40.8329386,13.463172 C40.8110506,13.499424 40.8951826,13.569192 40.8746626,13.596552 C40.8500386,13.627332 40.7173426,13.563036 40.6961386,13.552776 C40.5559186,13.484376 40.5716506,13.446756 40.4765746,13.410504 C40.3609786,13.366044 40.2939466,13.405716 40.2043426,13.335264 C40.1968186,13.329792 40.1455186,13.289436 40.1550946,13.268916 C40.1660386,13.244292 40.2583786,13.262076 40.3404586,13.277808 C40.4170666,13.292856 40.4553706,13.299696 40.5025666,13.319532 C40.6284226,13.370832 40.6482586,13.43376 40.7077666,13.424184 C40.7631706,13.415292 40.8151546,13.350312 40.8199426,13.288752 C40.8295186,13.172472 40.6742506,13.071924 40.6886146,13.054824 C40.6988746,13.043196 40.7679586,13.108176 40.8069466,13.085604 C40.8431986,13.065084 40.8473026,12.973428 40.8055786,12.935808 C40.7727466,12.906396 40.7371786,12.935124 40.7029786,12.909816 C40.6585186,12.878352 40.5990106,12.718296 40.4293786,12.69162 C40.3972306,12.686832 40.3856026,12.675888 40.3883386,12.66084 C40.3985986,12.595176 40.6701466,12.456324 40.6496266,12.423492 C40.5914866,12.331836 40.4752066,12.318156 40.4813626,12.28122 C40.4861506,12.251808 40.5572866,12.261384 40.5778066,12.221028 C40.5976426,12.180672 40.5511306,12.12048 40.4464786,11.991888 C40.2713746,11.779164 40.2501706,11.76138 40.2275986,11.69982 C40.2098146,11.65194 40.1776666,11.565756 40.1927146,11.459736 C40.2050266,11.376288 40.2392266,11.33046 40.2180226,11.25522 C40.2009226,11.196396 40.1708266,11.197764 40.1633026,11.1492 C40.1455186,11.043864 40.2720586,10.945368 40.3007866,10.92348 C40.3760266,10.863972 40.4738386,10.827036 40.4882026,10.846188 C40.5094066,10.8756 40.3151506,11.000088 40.3459306,11.121156 C40.3582426,11.16972 40.3985986,11.17998 40.4006506,11.23812 C40.4033866,11.302416 40.3548226,11.341404 40.3753426,11.372184 C40.3890226,11.393388 40.4150146,11.379708 40.4451106,11.397492 C40.5032506,11.43306 40.4676826,11.519928 40.5114586,11.589696 C40.5709666,11.684088 40.7303386,11.679984 40.7282866,11.695032 C40.7262346,11.711448 40.5538666,11.662884 40.4868346,11.740176 C40.4451106,11.788056 40.4478466,11.879712 40.4882026,11.927592 C40.5278746,11.97342 40.5723346,11.944692 40.6516786,11.994624 C40.7317066,12.043872 40.7405986,12.106116 40.7823226,12.102696 C40.8336226,12.097908 40.8363586,12.00078 40.8849226,11.994624 C40.9505866,11.985732 41.0572906,12.15126 41.0155666,12.232656 C40.9957306,12.270276 40.9526386,12.273696 40.9485346,12.312 C40.9451146,12.345516 40.9731586,12.383136 41.0059906,12.394764 C41.0429266,12.408444 41.0648146,12.3804 41.0825986,12.389976 C41.1092746,12.40434 41.0853346,12.480948 41.0579746,12.593808 C41.0367706,12.683412 41.0135146,12.795588 41.0128306,12.916656 C41.0128306,12.959064 41.0107786,13.198464 41.0921746,13.221036 C41.1441586,13.2354 41.2276066,13.162212 41.2310266,13.093812 C41.2330786,13.050036 41.2009306,13.041828 41.1790426,12.98574 C41.1318466,12.86604 41.2043506,12.719664 41.2734346,12.639636 C41.3035306,12.604752 41.3069506,12.61296 41.3226826,12.588336 C41.3397826,12.56166 41.3479906,12.532248 41.3520946,12.502836 C41.3623546,12.415284 41.3308906,12.3291 41.3644066,12.313368 C41.3746666,12.30858 41.3774026,12.316104 41.4006586,12.312684 C41.4013426,12.312684 41.4430666,12.307212 41.4827386,12.266856 C41.5552426,12.1923 41.5607146,11.907072 41.5607146,11.907072 C41.5613986,11.870136 41.5620826,11.835252 41.5620826,11.80242 C41.5634506,11.623896 41.5559266,11.509668 41.5258306,11.50488 C41.5100986,11.502828 41.4998386,11.531556 41.4738466,11.529504 C41.4471706,11.526768 41.4204946,11.493936 41.4191266,11.461788 C41.4170746,11.418012 41.4635866,11.406384 41.4656386,11.3715 C41.4676906,11.321568 41.3732986,11.295576 41.2672786,11.225124 C41.2029826,11.182032 41.1564706,11.1321 41.0620786,11.031552 C40.9471666,10.909116 40.9806826,10.918008 40.8739786,10.805148 C40.7918986,10.71828 40.7474386,10.6875 40.7392306,10.620468 C40.7371786,10.606104 40.7371786,10.59174 40.7385466,10.578744 C40.7426506,10.532232 40.7618026,10.49598 40.7672746,10.485036 C40.8028426,10.420056 40.8390946,10.430316 40.8910786,10.348236 C40.9088626,10.319508 40.9239106,10.28736 40.9444306,10.288728 C40.9581106,10.290096 40.9690546,10.305828 40.9724746,10.314036 C41.0059906,10.385856 40.7795866,10.491876 40.8103666,10.60884 C40.8110506,10.61226 40.8124186,10.614996 40.8137866,10.618416 C40.8315706,10.665612 40.8890266,10.705284 40.9977826,10.77984 C41.1715186,10.898172 41.2474426,10.88586 41.2693306,10.881072 C41.2830106,10.878336 41.2891666,10.874916 41.3302066,10.864656 C41.4150226,10.842768 41.4581146,10.831824 41.4745306,10.839348 C41.5518226,10.87218 41.5059946,11.10474 41.5422466,11.11158 C41.5586626,11.114316 41.5805506,11.066436 41.5860226,11.054808 C41.6414266,10.932372 41.5743946,10.8243 41.6400586,10.789416 C41.6605786,10.777788 41.6968306,10.773 41.7077746,10.744272 C41.7187186,10.71828 41.6968306,10.703916 41.6995666,10.671768 C41.7036706,10.614312 41.7795946,10.611576 41.7953266,10.5507 C41.8083226,10.498032 41.7583906,10.470672 41.7775426,10.414584 C41.7864346,10.387908 41.8021666,10.38312 41.8254226,10.353708 C41.8630426,10.306512 41.8733026,10.257948 41.8842466,10.204596 C41.9157106,10.053432 41.8739866,9.939204 41.8979266,9.930996 C41.9170786,9.92484 41.9464906,10.004184 41.9711146,9.999396 C42.0032626,9.991872 41.9971066,9.83592 41.9841106,9.721692 C41.9649586,9.554796 41.9423866,9.3537 41.8384186,9.321552 C41.7748066,9.3024 41.7009346,9.353016 41.6893066,9.331128 C41.6810986,9.31608 41.7221386,9.294192 41.7330826,9.238788 C41.7419746,9.192276 41.7187186,9.178596 41.7323986,9.146448 C41.7460786,9.111564 41.7912226,9.085572 41.8302106,9.08694 C41.8370506,9.08694 41.8432066,9.087624 41.8486786,9.088992 C41.8904026,9.10062 41.8890346,9.142344 41.9218666,9.156708 C41.9806906,9.182016 42.0538786,9.075996 42.1667386,8.997336 C42.3507346,8.868744 42.4293946,8.961084 42.5969746,8.832492 C42.7009426,8.753148 42.6947866,8.699112 42.8131186,8.633448 C42.9095626,8.580096 42.9335026,8.60472 43.0299466,8.554788 C43.1906866,8.472708 43.3042306,8.313336 43.2775546,8.275716 C43.2652426,8.257248 43.2200986,8.268876 43.1886346,8.277084 C43.0436266,8.312652 42.9649666,8.433036 42.9526546,8.42346 C42.9369226,8.411832 43.0566226,8.244936 43.0388386,8.229888 C43.0272106,8.219628 42.9601786,8.291448 42.8623666,8.363952 C42.7741306,8.4303 42.7029946,8.466552 42.6058666,8.515116 C42.3432106,8.647812 42.3110626,8.602668 42.1475866,8.70048 C41.9546986,8.816076 41.8575706,8.963136 41.8391026,8.948772 C41.8261066,8.937828 41.8746706,8.851644 41.9225506,8.783244 C41.9567506,8.733312 41.9882146,8.69706 42.0196786,8.665596 C42.1065466,8.579412 42.1940986,8.534952 42.3500506,8.385156 C42.4971106,8.244252 42.5326786,8.174484 42.6462226,8.14986 C42.7289866,8.131392 42.7481386,8.16012 42.8281666,8.135496 C42.9752266,8.090352 42.9670186,7.97544 43.1017666,7.92414 C43.1954746,7.889256 43.2413026,7.928928 43.3199626,7.923456 C43.3411666,7.922088 43.3651066,7.917984 43.3924666,7.907724 C43.4013586,7.904988 43.6257106,7.783236 43.8014986,7.67448 C43.9102546,7.606764 44.0005426,7.543836 44.0108026,7.516476 C44.0251666,7.474752 43.9964386,7.456968 44.0012266,7.398828 C44.0087506,7.301016 44.1017746,7.201152 44.1633346,7.212096 C44.2242106,7.22304 44.0621026,7.484328 44.1168226,7.488432 C44.1530746,7.490484 44.3391226,7.294176 44.3815306,7.242192 C44.5101226,7.08624 44.6578666,7.119072 44.6811226,7.022628 C44.6927506,6.97338 44.6564986,6.920712 44.5846786,6.814692 C44.5238026,6.725088 44.4964426,6.725772 44.4868666,6.72714 C44.4636106,6.731244 44.4444586,6.759972 44.4389866,6.786648 C44.4198346,6.878988 44.5627906,6.937812 44.5463746,7.000056 C44.5285906,7.066404 44.3309146,7.1136 44.2317346,7.03494 C44.1729106,6.989112 44.2023226,6.941232 44.1359746,6.86736 C44.0846746,6.810588 44.0203786,6.787332 43.8924706,6.741504 C43.7727706,6.698412 43.7303626,6.69978 43.7030026,6.654636 C43.6735906,6.60744 43.6872706,6.549984 43.6982146,6.50484 C43.7337826,6.359148 43.8350146,6.293484 43.8356986,6.245604 C43.8363826,6.240132 43.8356986,6.235344 43.8329626,6.230556 C43.8124426,6.189516 43.7262586,6.229872 43.6708546,6.178572 C43.6277626,6.1389 43.6311826,6.068448 43.6626466,5.87898 C43.6653826,5.863932 43.6681186,5.848884 43.6701706,5.83452 C43.6975306,5.668308 43.7139466,5.57802 43.7419906,5.48226 C43.7994466,5.285268 43.8302266,5.27022 43.8616906,5.108796 C43.8917866,4.958316 43.8705826,4.94532 43.9027306,4.889232 C43.9677106,4.775688 44.0750986,4.792104 44.2967146,4.679244 C44.4629266,4.594428 44.6681266,4.448736 44.6448706,4.35366 C44.6332426,4.303728 44.5634746,4.2921 44.5614226,4.229856 C44.5593706,4.177188 44.6086186,4.158036 44.6004106,4.10742 C44.5928866,4.060908 44.5463746,4.057488 44.5326946,4.013712 C44.5080706,3.934368 44.6202466,3.815352 44.6558146,3.829716 C44.6954866,3.846132 44.6188786,4.020552 44.6845426,4.064328 C44.7283186,4.09374 44.8247626,4.058172 44.8671706,3.99456 C44.9198386,3.916584 44.8760626,3.81672 44.9082106,3.805092 C44.9273626,3.798252 44.9622466,3.829032 44.9772946,3.862548 C45.0012346,3.916584 44.9615626,3.95352 44.9848186,3.99114 C45.0121786,4.036284 45.1031506,4.041072 45.1161466,4.017816 C45.1291426,3.99456 45.0648466,3.941892 45.0785266,3.924108 C45.0887866,3.910428 45.1270906,3.935736 45.1455586,3.91932 C45.1612906,3.904272 45.1551346,3.8646 45.1387186,3.835188 C45.1024666,3.770892 45.0258586,3.774996 45.0203866,3.736008 C45.0176506,3.712752 45.0395386,3.681972 45.0641626,3.677184 C45.1380346,3.66282 45.2276386,3.876228 45.2556826,3.863916 C45.2789386,3.85434 45.2331106,3.707964 45.2563666,3.699072 C45.2700466,3.694284 45.2939866,3.742164 45.3090346,3.736692 C45.3357106,3.7278 45.2830426,3.580056 45.3336586,3.543804 C45.3685426,3.518496 45.4212106,3.5739 45.4629346,3.54654 C45.5080786,3.517128 45.4745626,3.435048 45.5217586,3.403584 C45.5614306,3.376908 45.6140986,3.417264 45.6366706,3.389904 C45.6612946,3.362544 45.6195706,3.298932 45.6353026,3.287988 C45.6510346,3.277728 45.6872866,3.340656 45.7290106,3.335184 C45.7604746,3.33108 45.7666306,3.29346 45.8281906,3.175812 C45.8692306,3.097836 45.8876986,3.07458 45.8753866,3.054744 C45.8617066,3.032172 45.8151946,3.0267 45.7823626,3.039696 C45.7474786,3.053376 45.7365346,3.08484 45.7221706,3.080052 C45.7091746,3.075948 45.7050706,3.043116 45.7098586,3.01644 C45.7194346,2.96172 45.7638946,2.949408 45.7591066,2.919312 C45.7543186,2.889216 45.7091746,2.889216 45.6695026,2.848176 C45.6359866,2.813292 45.6257266,2.768832 45.6216226,2.736 L45.4301026,2.694276 L45.3295546,2.321496 L45.2207986,2.370744 L45.0101266,2.364588 L44.4718186,0.997272 L44.0450026,0.777024 L43.8056026,1.004112 L43.5956146,1.042416 L43.4321386,0.871416 L43.3192786,0.888516 L42.9683866,2.46582 L43.0723546,2.737368 L42.9936946,2.796876 L42.8726266,3.183336 L42.9287146,3.352968 L42.8206426,3.411108 C42.8206426,3.411108 42.8370586,3.58074 42.8206426,3.58074 C42.8083306,3.58074 42.7351426,3.545172 42.7043626,3.530124 L42.6906826,3.523284 L42.6386986,3.679236 L42.4499146,3.632724 L42.3992986,3.958992 L42.3719386,3.9672 L41.1544186,4.311252 L40.1790346,4.586904 C40.1031106,4.59648 39.9868306,4.622472 39.8678146,4.697028 C39.8219866,4.72644 39.7652146,4.78458 39.6523546,4.899492 C39.4580986,5.09922 39.3602866,5.200452 39.3575506,5.283216 C39.3541306,5.367348 39.3992746,5.376924 39.3862786,5.459004 C39.3691786,5.560236 39.2877826,5.630688 39.2029666,5.70456 C39.0887386,5.80374 39.0319666,5.81058 39.0162346,5.877612 C39.0018706,5.939172 39.0278626,6.016464 39.0771106,6.040404 C39.1420906,6.071868 39.2310106,6.000048 39.2412706,6.014412 C39.2508466,6.030144 39.1393546,6.078024 39.1160986,6.168312 C39.0812146,6.302376 39.2713666,6.408396 39.2296426,6.512364 C39.2104906,6.561612 39.1653466,6.546564 39.0695866,6.615648 C38.9355226,6.712092 38.9615146,6.784596 38.8541266,6.859152 C38.7631546,6.921396 38.7241666,6.883776 38.5237546,6.945336 C38.3568586,6.995952 38.3787466,7.023996 38.2610986,7.054776 C38.0866786,7.100604 38.0429026,7.03836 37.7330506,7.049304 C37.5757306,7.054776 37.4915986,7.074612 37.4163586,7.104024 C37.3335946,7.135488 37.2303106,7.17516 37.1995306,7.263396 C37.1831146,7.31196 37.2050026,7.378992 37.2508306,7.511688 C37.3096546,7.682688 37.3547986,7.755876 37.3185466,7.805808 C37.2973426,7.834536 37.2720346,7.823592 37.2350986,7.860528 C37.1810626,7.91388 37.1803786,7.993224 37.1776426,8.021268 C37.1708026,8.1054 37.1065066,8.175852 36.8541106,8.372844 C36.8041786,8.411832 36.7474066,8.455608 36.6824266,8.504856 C36.4587586,8.675172 36.3472666,8.759988 36.2918626,8.795556 C36.2713426,8.809236 36.2515066,8.821548 36.2330386,8.833176 C36.1071826,8.911152 36.0162106,8.958348 35.8315306,9.08352 C35.7179866,9.160812 35.6605306,9.1998 35.6215426,9.234 C35.3985586,9.428256 35.3828266,9.57258 35.2193506,9.61704 C35.1256426,9.643716 35.1181186,9.598572 35.0052586,9.631404 C34.8540946,9.67518 34.8431506,9.762732 34.7166106,9.775044 C34.6194826,9.783936 34.5839146,9.737424 34.5059386,9.772308 C34.4498506,9.797616 34.4211226,9.844128 34.3848706,9.8325 C34.3629826,9.824976 34.3438306,9.7983 34.3493026,9.778464 C34.3616146,9.732636 34.5032026,9.754524 34.5141466,9.7128 C34.5196186,9.689544 34.4833666,9.65124 34.4443786,9.645084 C34.3917106,9.636876 34.3752946,9.69228 34.3157866,9.70254 C34.2535426,9.713484 34.2213946,9.660816 34.1495746,9.616356" id="Stroke-150" stroke-width="1.026" fill="#FFFFFF"></path>
                    </g>
                </g>
            </g>
        </g>
    </g>
</svg>